<?xml version="1.0" encoding="utf-8"?>
<!-- Generator: Adobe Illustrator 16.0.0, SVG Export Plug-In . SVG Version: 6.00 Build 0)  -->
<!DOCTYPE svg PUBLIC "-//W3C//DTD SVG 1.1//EN" "http://www.w3.org/Graphics/SVG/1.1/DTD/svg11.dtd">
<svg version="1.1" xmlns="http://www.w3.org/2000/svg" xmlns:xlink="http://www.w3.org/1999/xlink" x="0px" y="0px" width="380px"
	 height="280px" viewBox="0 0 380 280" enable-background="new 0 0 380 280" xml:space="preserve">
<g id="Canvas">
	<g>
		<path fill-rule="evenodd" clip-rule="evenodd" fill="#D0D0D0" d="M379.95,35.5H0V10C0,3.333,3.333,0,10,0h359.95
			c6.666,0,10,3.333,10,10V35.5z"/>
		<path fill-rule="evenodd" clip-rule="evenodd" fill="#ECECEC" d="M0,35.5h379.95V40H0V35.5z M379.95,80v190
			c0,6.667-3.334,10-10,10H60V80H379.95z"/>
		<path fill-rule="evenodd" clip-rule="evenodd" fill="#494949" d="M60,80v200H10c-6.667,0-10-3.333-10-10V80H60z"/>
		<linearGradient id="SVGID_1_" gradientUnits="userSpaceOnUse" x1="0" y1="60" x2="379.9502" y2="60">
			<stop  offset="0" style="stop-color:#45487C"/>
			<stop  offset="1" style="stop-color:#E56769"/>
		</linearGradient>
		<polygon fill-rule="evenodd" clip-rule="evenodd" fill="url(#SVGID_1_)" points="379.95,80 60,80 0,80 0,40 379.95,40 		"/>
	</g>
</g>
<g id="Dots">
	<g>
		<path fill-rule="evenodd" clip-rule="evenodd" fill="#D6635D" d="M16.95,22.7c-1.2,0-2.217-0.434-3.05-1.3
			c-0.8-0.8-1.2-1.783-1.2-2.95c0-1.167,0.4-2.167,1.2-3c0.833-0.833,1.85-1.25,3.05-1.25c1.167,0,2.15,0.417,2.95,1.25
			c0.833,0.833,1.25,1.833,1.25,3c0,1.167-0.417,2.15-1.25,2.95C19.1,22.267,18.117,22.7,16.95,22.7z"/>
		<path fill-rule="evenodd" clip-rule="evenodd" fill="#DEAA5A" d="M24.15,18.6c0-1.167,0.4-2.167,1.2-3
			c0.833-0.8,1.85-1.2,3.05-1.2c1.167,0,2.15,0.4,2.95,1.2c0.833,0.833,1.25,1.833,1.25,3c0,1.167-0.417,2.167-1.25,3
			c-0.8,0.833-1.783,1.25-2.95,1.25c-1.2,0-2.217-0.417-3.05-1.25C24.55,20.767,24.15,19.767,24.15,18.6z"/>
		<path fill-rule="evenodd" clip-rule="evenodd" fill="#77B44E" d="M42.85,21.6c-0.8,0.833-1.783,1.25-2.95,1.25
			c-1.167,0-2.183-0.417-3.05-1.25c-0.8-0.833-1.2-1.833-1.2-3c0-1.167,0.4-2.167,1.2-3c0.867-0.8,1.883-1.2,3.05-1.2
			c1.167,0,2.15,0.4,2.95,1.2c0.833,0.833,1.25,1.833,1.25,3C44.1,19.767,43.683,20.767,42.85,21.6z"/>
	</g>
</g>
<g id="Tabs">
	<polygon fill-rule="evenodd" clip-rule="evenodd" fill="#ECECEC" points="193.95,35.5 50.3,35.5 61.25,7.2 183.95,7.2 	"/>
</g>
<g id="Icon_Checklist">
	<linearGradient id="SVGID_2_" gradientUnits="userSpaceOnUse" x1="-0.0249" y1="179.2002" x2="379.9251" y2="179.2002">
		<stop  offset="0" style="stop-color:#45487C"/>
		<stop  offset="1" style="stop-color:#E56769"/>
	</linearGradient>
	<path fill-rule="evenodd" clip-rule="evenodd" fill="url(#SVGID_2_)" d="M231.8,110.8c0.533,0.067,1.084,0.167,1.65,0.3
		c0.566,0.1,1.149,0.25,1.75,0.45c0.566,0.2,1.166,0.434,1.8,0.7c0.6,0.233,1.167,0.5,1.7,0.8c0.566,0.267,1.083,0.55,1.55,0.85
		c0.5,0.3,0.967,0.617,1.4,0.95c0.399,0.333,0.783,0.683,1.149,1.05l23.851,23.85c0.366,0.367,0.716,0.75,1.05,1.15
		c0.333,0.433,0.649,0.9,0.95,1.4c0.3,0.467,0.583,0.983,0.85,1.55c0.3,0.534,0.566,1.101,0.8,1.7c0.267,0.634,0.5,1.233,0.7,1.8
		c0.2,0.601,0.35,1.184,0.45,1.75c0.133,0.534,0.233,1.084,0.3,1.65c0.066,0.533,0.1,1.05,0.1,1.55V240.4
		c0,0.5-0.05,0.983-0.149,1.449c-0.066,0.467-0.2,0.917-0.4,1.351c-0.166,0.434-0.383,0.85-0.649,1.25
		c-0.267,0.399-0.584,0.783-0.95,1.149c-0.367,0.334-0.733,0.634-1.101,0.9c-0.399,0.267-0.816,0.5-1.25,0.7
		c-0.433,0.166-0.883,0.3-1.35,0.399c-0.5,0.067-1,0.101-1.5,0.101H161.75c-0.5,0-1-0.033-1.5-0.101
		c-0.467-0.1-0.917-0.233-1.35-0.399c-0.433-0.2-0.85-0.434-1.25-0.7s-0.767-0.566-1.1-0.9c-0.367-0.366-0.683-0.75-0.95-1.149
		c-0.267-0.4-0.483-0.816-0.65-1.25c-0.2-0.434-0.333-0.884-0.4-1.351c-0.1-0.466-0.15-0.949-0.15-1.449V118.05
		c0-0.5,0.05-1,0.15-1.5c0.067-0.466,0.2-0.917,0.4-1.35c0.167-0.434,0.383-0.85,0.65-1.25c0.267-0.4,0.583-0.767,0.95-1.1
		c0.333-0.367,0.7-0.684,1.1-0.95s0.817-0.483,1.25-0.65c0.434-0.2,0.883-0.333,1.35-0.4c0.5-0.1,1-0.15,1.5-0.15h68.5
		C230.75,110.7,231.267,110.733,231.8,110.8z M234.6,121.9c-0.267-0.133-0.55-0.267-0.85-0.4c-0.333-0.133-0.684-0.267-1.05-0.4
		v28.75h28.75c-0.134-0.366-0.267-0.716-0.4-1.05c-0.133-0.3-0.267-0.583-0.399-0.85c-0.134-0.267-0.284-0.5-0.45-0.7
		c-0.134-0.2-0.283-0.384-0.45-0.55l-23.9-23.9c-0.166-0.167-0.35-0.316-0.55-0.45C235.1,122.183,234.866,122.033,234.6,121.9z
		 M185.25,169.6c0.267-0.133,0.583-0.199,0.95-0.199h53.85c0.334,0,0.65,0.066,0.95,0.199c0.3,0.101,0.566,0.267,0.8,0.5
		s0.4,0.5,0.5,0.801c0.134,0.3,0.2,0.616,0.2,0.949v4.9c0,0.366-0.066,0.7-0.2,1c-0.1,0.3-0.267,0.566-0.5,0.8
		c-0.233,0.2-0.5,0.367-0.8,0.5c-0.3,0.101-0.616,0.15-0.95,0.15H186.2c-0.367,0-0.684-0.05-0.95-0.15c-0.3-0.133-0.567-0.3-0.8-0.5
		c-0.233-0.233-0.4-0.5-0.5-0.8c-0.133-0.3-0.2-0.634-0.2-1v-4.9c0-0.333,0.067-0.649,0.2-0.949c0.1-0.301,0.267-0.567,0.5-0.801
		C184.683,169.866,184.95,169.7,185.25,169.6z M183.75,191.45c0-0.367,0.067-0.7,0.2-1c0.1-0.267,0.267-0.517,0.5-0.75
		c0.233-0.233,0.5-0.417,0.8-0.55c0.267-0.101,0.583-0.15,0.95-0.15h53.85c0.334,0,0.65,0.05,0.95,0.15
		c0.3,0.133,0.566,0.316,0.8,0.55s0.4,0.483,0.5,0.75c0.134,0.3,0.2,0.633,0.2,1v4.899c0,0.334-0.066,0.65-0.2,0.95
		c-0.1,0.3-0.267,0.566-0.5,0.8s-0.5,0.4-0.8,0.5c-0.3,0.134-0.616,0.2-0.95,0.2H186.2c-0.367,0-0.684-0.066-0.95-0.2
		c-0.3-0.1-0.567-0.267-0.8-0.5c-0.233-0.233-0.4-0.5-0.5-0.8c-0.133-0.3-0.2-0.616-0.2-0.95V191.45z M224.1,156.35
		c-0.267-0.399-0.483-0.8-0.649-1.199c-0.167-0.434-0.3-0.9-0.4-1.4c-0.1-0.467-0.149-0.95-0.149-1.45v-31.8h-58.7v117.45h97.85
		v-78.3h-31.8c-0.5,0-0.983-0.051-1.45-0.15c-0.5-0.1-0.967-0.233-1.399-0.4c-0.434-0.166-0.834-0.383-1.2-0.649
		c-0.4-0.267-0.783-0.584-1.15-0.95C224.684,157.134,224.366,156.75,224.1,156.35z M241.8,209.25c0.233,0.233,0.4,0.5,0.5,0.8
		c0.134,0.3,0.2,0.617,0.2,0.95v4.9c0,0.366-0.066,0.699-0.2,1c-0.1,0.3-0.267,0.55-0.5,0.75c-0.233,0.233-0.5,0.416-0.8,0.55
		c-0.3,0.1-0.616,0.149-0.95,0.149H186.2c-0.367,0-0.684-0.05-0.95-0.149c-0.3-0.134-0.567-0.316-0.8-0.55
		c-0.233-0.2-0.4-0.45-0.5-0.75c-0.133-0.301-0.2-0.634-0.2-1V211c0-0.333,0.067-0.65,0.2-0.95c0.1-0.3,0.267-0.566,0.5-0.8
		c0.233-0.233,0.5-0.4,0.8-0.5c0.267-0.134,0.583-0.2,0.95-0.2h53.85c0.334,0,0.65,0.066,0.95,0.2
		C241.3,208.85,241.566,209.017,241.8,209.25z"/>
</g>
</svg>
