<?xml version="1.0" encoding="utf-8"?>
<!-- Generator: Adobe Illustrator 16.0.0, SVG Export Plug-In . SVG Version: 6.00 Build 0)  -->
<!DOCTYPE svg PUBLIC "-//W3C//DTD SVG 1.1//EN" "http://www.w3.org/Graphics/SVG/1.1/DTD/svg11.dtd">
<svg version="1.1" xmlns="http://www.w3.org/2000/svg" xmlns:xlink="http://www.w3.org/1999/xlink" x="0px" y="0px" width="380px"
	 height="280px" viewBox="0 0 380 280" enable-background="new 0 0 380 280" xml:space="preserve">
<g id="Canvas">
	<g>
		<path fill-rule="evenodd" clip-rule="evenodd" fill="#D0D0D0" d="M379.95,35.5H0V10C0,3.333,3.333,0,10,0h359.95
			c6.666,0,10,3.333,10,10V35.5z"/>
		<path fill-rule="evenodd" clip-rule="evenodd" fill="#ECECEC" d="M0,35.5h379.95V40H0V35.5z M379.95,80v190
			c0,6.667-3.334,10-10,10H60V80H379.95z"/>
		<path fill-rule="evenodd" clip-rule="evenodd" fill="#494949" d="M60,80v200H10c-6.667,0-10-3.333-10-10V80H60z"/>
		<linearGradient id="SVGID_1_" gradientUnits="userSpaceOnUse" x1="0" y1="60" x2="379.9502" y2="60">
			<stop  offset="0" style="stop-color:#45487C"/>
			<stop  offset="1" style="stop-color:#E56769"/>
		</linearGradient>
		<polygon fill-rule="evenodd" clip-rule="evenodd" fill="url(#SVGID_1_)" points="379.95,80 60,80 0,80 0,40 379.95,40 		"/>
	</g>
</g>
<g id="Dots">
	<g>
		<path fill-rule="evenodd" clip-rule="evenodd" fill="#D6635D" d="M16.95,22.7c-1.2,0-2.217-0.434-3.05-1.3
			c-0.8-0.8-1.2-1.783-1.2-2.95c0-1.167,0.4-2.167,1.2-3c0.833-0.833,1.85-1.25,3.05-1.25c1.167,0,2.15,0.417,2.95,1.25
			c0.833,0.833,1.25,1.833,1.25,3c0,1.167-0.417,2.15-1.25,2.95C19.1,22.267,18.117,22.7,16.95,22.7z"/>
		<path fill-rule="evenodd" clip-rule="evenodd" fill="#DEAA5A" d="M24.15,18.6c0-1.167,0.4-2.167,1.2-3
			c0.833-0.8,1.85-1.2,3.05-1.2c1.167,0,2.15,0.4,2.95,1.2c0.833,0.833,1.25,1.833,1.25,3c0,1.167-0.417,2.167-1.25,3
			c-0.8,0.833-1.783,1.25-2.95,1.25c-1.2,0-2.217-0.417-3.05-1.25C24.55,20.767,24.15,19.767,24.15,18.6z"/>
		<path fill-rule="evenodd" clip-rule="evenodd" fill="#77B44E" d="M42.85,21.6c-0.8,0.833-1.783,1.25-2.95,1.25
			c-1.167,0-2.183-0.417-3.05-1.25c-0.8-0.833-1.2-1.833-1.2-3c0-1.167,0.4-2.167,1.2-3c0.867-0.8,1.883-1.2,3.05-1.2
			c1.167,0,2.15,0.4,2.95,1.2c0.833,0.833,1.25,1.833,1.25,3C44.1,19.767,43.683,20.767,42.85,21.6z"/>
	</g>
</g>
<g id="Tabs">
	<polygon fill-rule="evenodd" clip-rule="evenodd" fill="#ECECEC" points="193.95,35.5 50.3,35.5 61.25,7.2 183.95,7.2 	"/>
</g>
<g id="Icon_Code">
	<linearGradient id="SVGID_2_" gradientUnits="userSpaceOnUse" x1="-0.0249" y1="179.125" x2="379.9251" y2="179.125">
		<stop  offset="0" style="stop-color:#45487C"/>
		<stop  offset="1" style="stop-color:#E56769"/>
	</linearGradient>
	<path fill-rule="evenodd" clip-rule="evenodd" fill="url(#SVGID_2_)" d="M225.75,110.7c0.3,0,0.6,0.05,0.9,0.15l6.149,1.7
		c0.434,0.133,0.816,0.333,1.15,0.6c0.333,0.233,0.6,0.55,0.8,0.95c0.233,0.367,0.366,0.75,0.4,1.15
		c0.033,0.433-0.017,0.867-0.15,1.3L197.85,245.2c-0.133,0.434-0.333,0.816-0.6,1.149c-0.267,0.334-0.583,0.601-0.95,0.801
		c-0.467,0.267-0.95,0.399-1.45,0.399c-0.3,0-0.6-0.05-0.899-0.149l-6.2-1.7c-0.4-0.134-0.767-0.316-1.1-0.55
		c-0.333-0.267-0.6-0.601-0.8-1c-0.233-0.367-0.367-0.75-0.4-1.15c-0.034-0.434,0.017-0.866,0.15-1.3l37.15-128.65
		c0.134-0.433,0.333-0.816,0.6-1.15c0.267-0.333,0.584-0.6,0.95-0.8C224.767,110.833,225.25,110.7,225.75,110.7z M167.6,129.65
		c0.4-0.167,0.816-0.25,1.25-0.25c0.433,0,0.833,0.083,1.2,0.25c0.4,0.167,0.767,0.417,1.1,0.75l4.95,4.95
		c0.333,0.333,0.583,0.7,0.75,1.1c0.167,0.367,0.25,0.767,0.25,1.2c0,0.434-0.083,0.85-0.25,1.25
		c-0.167,0.367-0.417,0.717-0.75,1.05l-39.15,39.2L176.1,218.3c0.333,0.334,0.583,0.684,0.75,1.05c0.167,0.4,0.25,0.817,0.25,1.25
		c0,0.434-0.083,0.834-0.25,1.2c-0.167,0.4-0.417,0.767-0.75,1.101l-4.95,4.949c-0.333,0.334-0.7,0.584-1.1,0.75
		c-0.367,0.167-0.767,0.25-1.2,0.25c-0.434,0-0.85-0.083-1.25-0.25c-0.367-0.166-0.717-0.416-1.05-0.75L120.1,181.4
		c-0.333-0.334-0.583-0.684-0.75-1.051c-0.167-0.366-0.25-0.767-0.25-1.199c0-0.434,0.083-0.851,0.25-1.25
		c0.167-0.367,0.417-0.717,0.75-1.051l46.45-46.45C166.883,130.067,167.233,129.817,167.6,129.65z M249.45,130.4
		c0.333-0.333,0.7-0.583,1.1-0.75c0.367-0.167,0.767-0.25,1.2-0.25s0.85,0.083,1.25,0.25c0.366,0.167,0.717,0.417,1.05,0.75
		l46.45,46.45c0.333,0.334,0.583,0.684,0.75,1.051c0.167,0.399,0.25,0.816,0.25,1.25c0,0.433-0.083,0.833-0.25,1.199
		c-0.167,0.367-0.417,0.717-0.75,1.051l-46.45,46.449c-0.333,0.334-0.684,0.584-1.05,0.75c-0.4,0.167-0.816,0.25-1.25,0.25
		s-0.833-0.083-1.2-0.25c-0.399-0.166-0.767-0.416-1.1-0.75l-4.95-4.949c-0.333-0.334-0.583-0.7-0.75-1.101
		c-0.167-0.366-0.25-0.767-0.25-1.2c0-0.433,0.083-0.85,0.25-1.25c0.167-0.366,0.417-0.716,0.75-1.05l39.15-39.149l-39.15-39.2
		c-0.333-0.333-0.583-0.684-0.75-1.05c-0.167-0.4-0.25-0.816-0.25-1.25c0-0.433,0.083-0.833,0.25-1.2
		c0.167-0.4,0.417-0.767,0.75-1.1L249.45,130.4z"/>
</g>
</svg>
