<?xml version="1.0" encoding="utf-8"?>
<!-- Generator: Adobe Illustrator 16.0.0, SVG Export Plug-In . SVG Version: 6.00 Build 0)  -->
<!DOCTYPE svg PUBLIC "-//W3C//DTD SVG 1.1//EN" "http://www.w3.org/Graphics/SVG/1.1/DTD/svg11.dtd">
<svg version="1.1" xmlns="http://www.w3.org/2000/svg" xmlns:xlink="http://www.w3.org/1999/xlink" x="0px" y="0px" width="380px"
	 height="280px" viewBox="0 0 380 280" enable-background="new 0 0 380 280" xml:space="preserve">
<g id="Canvas">
	<g>
		<path fill-rule="evenodd" clip-rule="evenodd" fill="#D0D0D0" d="M379.95,35.5H0V10C0,3.333,3.333,0,10,0h359.95
			c6.666,0,10,3.333,10,10V35.5z"/>
		<path fill-rule="evenodd" clip-rule="evenodd" fill="#ECECEC" d="M0,35.5h379.95V40H0V35.5z M379.95,80v190
			c0,6.667-3.334,10-10,10H60V80H379.95z"/>
		<path fill-rule="evenodd" clip-rule="evenodd" fill="#494949" d="M60,80v200H10c-6.667,0-10-3.333-10-10V80H60z"/>
		<linearGradient id="SVGID_1_" gradientUnits="userSpaceOnUse" x1="0" y1="60" x2="379.9502" y2="60">
			<stop  offset="0" style="stop-color:#45487C"/>
			<stop  offset="1" style="stop-color:#E56769"/>
		</linearGradient>
		<polygon fill-rule="evenodd" clip-rule="evenodd" fill="url(#SVGID_1_)" points="379.95,80 60,80 0,80 0,40 379.95,40 		"/>
	</g>
</g>
<g id="Dots">
	<g>
		<path fill-rule="evenodd" clip-rule="evenodd" fill="#D6635D" d="M16.95,22.7c-1.2,0-2.217-0.434-3.05-1.3
			c-0.8-0.8-1.2-1.783-1.2-2.95c0-1.167,0.4-2.167,1.2-3c0.833-0.833,1.85-1.25,3.05-1.25c1.167,0,2.15,0.417,2.95,1.25
			c0.833,0.833,1.25,1.833,1.25,3c0,1.167-0.417,2.15-1.25,2.95C19.1,22.267,18.117,22.7,16.95,22.7z"/>
		<path fill-rule="evenodd" clip-rule="evenodd" fill="#DEAA5A" d="M24.15,18.6c0-1.167,0.4-2.167,1.2-3
			c0.833-0.8,1.85-1.2,3.05-1.2c1.167,0,2.15,0.4,2.95,1.2c0.833,0.833,1.25,1.833,1.25,3c0,1.167-0.417,2.167-1.25,3
			c-0.8,0.833-1.783,1.25-2.95,1.25c-1.2,0-2.217-0.417-3.05-1.25C24.55,20.767,24.15,19.767,24.15,18.6z"/>
		<path fill-rule="evenodd" clip-rule="evenodd" fill="#77B44E" d="M42.85,21.6c-0.8,0.833-1.783,1.25-2.95,1.25
			c-1.167,0-2.183-0.417-3.05-1.25c-0.8-0.833-1.2-1.833-1.2-3c0-1.167,0.4-2.167,1.2-3c0.867-0.8,1.883-1.2,3.05-1.2
			c1.167,0,2.15,0.4,2.95,1.2c0.833,0.833,1.25,1.833,1.25,3C44.1,19.767,43.683,20.767,42.85,21.6z"/>
	</g>
</g>
<g id="Tabs">
	<polygon fill-rule="evenodd" clip-rule="evenodd" fill="#ECECEC" points="193.95,35.5 50.3,35.5 61.25,7.2 183.95,7.2 	"/>
</g>
<g id="Icon_Knowledge_Base">
	<linearGradient id="SVGID_2_" gradientUnits="userSpaceOnUse" x1="-0.0249" y1="179.2246" x2="379.9251" y2="179.2246">
		<stop  offset="0" style="stop-color:#45487C"/>
		<stop  offset="1" style="stop-color:#E56769"/>
	</linearGradient>
	<path fill-rule="evenodd" clip-rule="evenodd" fill="url(#SVGID_2_)" d="M182.2,110.75l76.6-0.05c0.566,0,1.101,0.033,1.601,0.1
		c0.533,0.034,1.033,0.1,1.5,0.2c0.5,0.1,0.983,0.233,1.449,0.4c0.434,0.167,0.867,0.35,1.301,0.55c0.433,0.2,0.85,0.433,1.25,0.7
		c0.366,0.267,0.733,0.55,1.1,0.85s0.717,0.633,1.05,1c0.334,0.367,0.65,0.767,0.95,1.2c0.3,0.4,0.566,0.816,0.8,1.25
		c0.233,0.433,0.434,0.883,0.601,1.35c0.199,0.434,0.366,0.883,0.5,1.35c0.1,0.467,0.183,0.95,0.25,1.45
		c0.066,0.467,0.116,0.95,0.149,1.45c0,0.5-0.033,1.017-0.1,1.55c-0.033,0.5-0.101,1.017-0.2,1.55s-0.233,1.083-0.4,1.65
		L246.15,208.15c-0.534,1.733-1.067,3.333-1.601,4.8s-1.066,2.767-1.6,3.899c-0.267,0.567-0.533,1.101-0.8,1.601
		s-0.534,0.95-0.801,1.35c-0.267,0.434-0.533,0.816-0.8,1.15c-0.267,0.333-0.533,0.633-0.8,0.899c-0.267,0.233-0.55,0.467-0.85,0.7
		c-0.334,0.233-0.684,0.434-1.051,0.601c-0.366,0.199-0.767,0.383-1.199,0.55c-0.434,0.166-0.884,0.316-1.351,0.45
		c-0.467,0.1-0.967,0.199-1.5,0.3c-0.533,0.1-1.083,0.184-1.649,0.25c-0.601,0.066-1.217,0.116-1.851,0.149
		c-0.633,0.034-1.3,0.051-2,0.051h-77.55c-0.4,0-0.767,0.033-1.1,0.1c-0.333,0.033-0.65,0.116-0.95,0.25c-0.567,0.2-1,0.533-1.3,1
		c-0.167,0.233-0.3,0.483-0.4,0.75c-0.067,0.3-0.117,0.6-0.15,0.9c0,0.333,0.033,0.683,0.1,1.05c0.066,0.333,0.183,0.7,0.35,1.1
		c0.167,0.533,0.383,1.033,0.65,1.5c0.267,0.434,0.583,0.851,0.95,1.25c0.367,0.4,0.767,0.767,1.2,1.101
		c0.433,0.3,0.917,0.583,1.45,0.85c0.534,0.267,1.117,0.5,1.75,0.7s1.3,0.366,2,0.5c0.733,0.1,1.5,0.184,2.3,0.25
		c0.8,0.066,1.65,0.1,2.55,0.1h82.35c0.434,0,0.85-0.017,1.25-0.05c0.434-0.066,0.866-0.167,1.3-0.3c0.4-0.101,0.8-0.233,1.2-0.4
		c0.4-0.166,0.816-0.366,1.25-0.6c0.366-0.233,0.717-0.483,1.05-0.75c0.334-0.267,0.634-0.566,0.9-0.9c0.267-0.3,0.5-0.616,0.7-0.95
		c0.166-0.366,0.316-0.733,0.449-1.1l26.75-88.05c0.101-0.334,0.2-0.7,0.301-1.101c0.066-0.366,0.116-0.767,0.149-1.2
		c0.033-0.4,0.05-0.833,0.05-1.3c0-0.5-0.017-1-0.05-1.5c0.566,0.2,1.101,0.45,1.601,0.75c0.5,0.267,0.966,0.55,1.399,0.85
		c0.467,0.333,0.884,0.683,1.25,1.05c0.367,0.366,0.717,0.767,1.05,1.2c0.267,0.399,0.534,0.816,0.801,1.25
		c0.233,0.467,0.433,0.916,0.6,1.35c0.2,0.467,0.366,0.934,0.5,1.4c0.1,0.467,0.184,0.934,0.25,1.399
		c0.066,0.467,0.116,0.95,0.15,1.45c0,0.5-0.034,1-0.101,1.5c-0.033,0.5-0.1,1.017-0.2,1.55c-0.1,0.534-0.233,1.067-0.399,1.601
		l-24.55,80.8c-0.134,0.5-0.301,0.967-0.5,1.4c-0.167,0.466-0.351,0.916-0.551,1.35c-0.233,0.434-0.466,0.866-0.699,1.3
		c-0.267,0.4-0.534,0.8-0.801,1.2c-0.3,0.4-0.6,0.8-0.899,1.2c-0.334,0.366-0.684,0.733-1.05,1.1c-0.334,0.367-0.7,0.717-1.101,1.05
		c-0.399,0.367-0.816,0.7-1.25,1c-0.399,0.334-0.816,0.634-1.25,0.9c-0.467,0.3-0.916,0.566-1.35,0.8s-0.867,0.467-1.3,0.7
		c-0.467,0.2-0.934,0.366-1.4,0.5c-0.434,0.167-0.884,0.316-1.35,0.45c-0.467,0.133-0.934,0.233-1.4,0.3s-0.934,0.134-1.4,0.2
		c-0.5,0.033-0.983,0.05-1.449,0.05H160.05c-0.566,0-1.133-0.033-1.7-0.1c-0.567-0.034-1.133-0.101-1.7-0.2
		c-0.566-0.101-1.133-0.233-1.7-0.4c-0.567-0.133-1.117-0.3-1.65-0.5c-0.566-0.2-1.117-0.416-1.65-0.649
		c-0.533-0.267-1.083-0.551-1.65-0.851c-0.533-0.3-1.067-0.616-1.6-0.95c-0.533-0.366-1.066-0.75-1.6-1.149
		c-0.533-0.4-1.05-0.8-1.55-1.2c-0.5-0.434-0.967-0.866-1.4-1.3c-0.467-0.434-0.9-0.884-1.3-1.351
		c-0.4-0.466-0.783-0.949-1.15-1.449s-0.717-1-1.05-1.5c-0.333-0.5-0.65-1.017-0.95-1.551c-0.3-0.533-0.566-1.083-0.8-1.649
		s-0.467-1.134-0.7-1.7c-0.167-0.5-0.316-1-0.45-1.5s-0.25-0.983-0.35-1.45c-0.1-0.5-0.167-0.983-0.2-1.45
		c-0.066-0.5-0.1-0.983-0.1-1.449c0-0.467,0.017-0.934,0.05-1.4s0.083-0.934,0.15-1.4c0.1-0.433,0.2-0.883,0.3-1.35
		c0.133-0.467,0.284-0.917,0.45-1.35c0-0.101,12.092-33.884,36.275-101.351c0.028-0.05,0.053-0.1,0.075-0.15
		c0.233-0.533,0.5-1.1,0.8-1.7c0.267-0.567,0.55-1.083,0.85-1.55c0.3-0.5,0.6-0.933,0.9-1.3c0.3-0.367,0.65-0.717,1.05-1.05
		c0.367-0.367,0.8-0.716,1.3-1.05c0.233-0.133,0.483-0.267,0.75-0.4s0.533-0.25,0.8-0.35c0.267-0.067,0.534-0.133,0.8-0.2
		C181.65,110.767,181.933,110.75,182.2,110.75z M192.6,133.75c-0.366,0.133-0.733,0.35-1.1,0.65c-0.366,0.267-0.684,0.567-0.95,0.9
		c-0.233,0.333-0.416,0.7-0.55,1.1l-1.85,5.7c-0.133,0.4-0.183,0.767-0.15,1.101c0.033,0.333,0.15,0.633,0.35,0.899
		c0.167,0.301,0.4,0.517,0.7,0.65c0.3,0.134,0.65,0.2,1.05,0.2h54.25c0.4,0,0.784-0.066,1.15-0.2s0.75-0.35,1.15-0.65
		c0.366-0.267,0.666-0.566,0.899-0.899c0.233-0.334,0.417-0.7,0.55-1.101l1.851-5.7c0.133-0.4,0.184-0.767,0.149-1.1
		c-0.033-0.333-0.133-0.633-0.3-0.9c-0.166-0.3-0.399-0.517-0.7-0.65c-0.3-0.133-0.666-0.2-1.1-0.2h-54.25
		C193.384,133.55,193,133.617,192.6,133.75z M182.6,159.25l-1.85,5.7c-0.133,0.366-0.183,0.733-0.15,1.1
		c0.033,0.334,0.133,0.634,0.3,0.9c0.2,0.267,0.45,0.483,0.75,0.649c0.3,0.134,0.65,0.2,1.05,0.2h54.25
		c0.399,0,0.783-0.066,1.149-0.2c0.367-0.166,0.733-0.383,1.101-0.649c0.399-0.3,0.717-0.617,0.95-0.95s0.416-0.684,0.55-1.05
		l1.85-5.7c0.134-0.4,0.184-0.767,0.15-1.1c-0.033-0.334-0.134-0.634-0.3-0.9c-0.2-0.3-0.434-0.517-0.7-0.65
		c-0.3-0.133-0.667-0.199-1.101-0.199h-54.25c-0.367,0-0.75,0.066-1.15,0.199c-0.367,0.134-0.733,0.351-1.1,0.65
		c-0.367,0.267-0.684,0.566-0.95,0.9C182.917,158.483,182.733,158.85,182.6,159.25z"/>
</g>
</svg>
