<?xml version="1.0" encoding="utf-8"?>
<!-- Generator: Adobe Illustrator 16.0.0, SVG Export Plug-In . SVG Version: 6.00 Build 0)  -->
<!DOCTYPE svg PUBLIC "-//W3C//DTD SVG 1.1//EN" "http://www.w3.org/Graphics/SVG/1.1/DTD/svg11.dtd">
<svg version="1.1" id="Layer_1" xmlns="http://www.w3.org/2000/svg" xmlns:xlink="http://www.w3.org/1999/xlink" x="0px" y="0px"
	 width="380px" height="280px" viewBox="0 0 380 280" enable-background="new 0 0 380 280" xml:space="preserve">
<g>
	<path fill-rule="evenodd" clip-rule="evenodd" fill="#ECECEC" d="M0,40v-4.5h50.3L61.25,7.2h122.7l10,28.3h186V40H0z M60,280V80
		h319.95v190c0,6.667-3.334,10-10,10H60z M232.35,168.35l-3.85,2.851c-0.267,0.2-0.483,0.434-0.65,0.7
		c-0.166,0.267-0.267,0.566-0.3,0.899c-0.033,0.334-0.017,0.65,0.05,0.95c0.101,0.3,0.25,0.583,0.45,0.85l13.75,18.351l-13.75,18.35
		c-0.2,0.3-0.35,0.601-0.45,0.9c-0.066,0.3-0.083,0.6-0.05,0.899c0.033,0.334,0.134,0.634,0.3,0.9c0.167,0.267,0.384,0.5,0.65,0.7
		l3.85,2.899c0.233,0.167,0.467,0.284,0.7,0.351c0.267,0.1,0.533,0.149,0.8,0.149c0.067,0,0.117,0,0.15,0
		c0.066,0,0.116-0.017,0.15-0.05c0.333-0.033,0.633-0.116,0.899-0.25c0.267-0.166,0.5-0.383,0.7-0.649l17.05-22.75
		c0.2-0.233,0.334-0.467,0.4-0.7c0.1-0.267,0.149-0.517,0.149-0.75s-0.05-0.467-0.149-0.7c-0.066-0.233-0.2-0.467-0.4-0.7
		l-17.05-22.75c-0.2-0.267-0.434-0.483-0.7-0.649c-0.267-0.167-0.566-0.267-0.899-0.301c-0.034,0-0.084,0-0.15,0
		c-0.033,0-0.083,0-0.15,0c-0.267,0-0.533,0.034-0.8,0.101C232.816,168.05,232.583,168.184,232.35,168.35z M223.55,160.55
		c-0.2-0.267-0.416-0.483-0.649-0.649c-0.267-0.167-0.567-0.267-0.9-0.301l-4.75-0.75c-0.066-0.033-0.134-0.05-0.2-0.05
		s-0.133,0-0.2,0c-0.267,0-0.517,0.033-0.75,0.101c-0.233,0.066-0.449,0.183-0.649,0.35c-0.3,0.2-0.533,0.417-0.7,0.65
		c-0.167,0.267-0.267,0.566-0.3,0.899l-10.4,62.75c-0.066,0.334-0.066,0.65,0,0.95s0.2,0.583,0.4,0.85s0.416,0.483,0.649,0.65
		c0.267,0.167,0.567,0.283,0.9,0.35l4.75,0.75c0.066,0,0.134,0,0.2,0c0.066,0.034,0.133,0.051,0.2,0.051
		c0.267,0,0.517-0.051,0.75-0.15c0.233-0.066,0.449-0.167,0.649-0.3c0.3-0.2,0.533-0.434,0.7-0.7c0.134-0.267,0.233-0.55,0.3-0.85
		l10.4-62.75c0.066-0.334,0.066-0.65,0-0.95S223.75,160.85,223.55,160.55z M223.65,151.9c0,0.5,0.05,0.983,0.149,1.449
		c0.101,0.467,0.233,0.917,0.4,1.351c0.166,0.399,0.383,0.8,0.649,1.2c0.267,0.399,0.584,0.767,0.95,1.1
		c0.334,0.366,0.7,0.684,1.101,0.95c0.399,0.267,0.8,0.483,1.199,0.649c0.434,0.167,0.884,0.301,1.351,0.4s0.95,0.15,1.45,0.15
		h31.449v77.3h-96.7v-116h58V151.9z M200.15,171.9c-0.167-0.267-0.384-0.5-0.65-0.7l-3.85-2.851c-0.233-0.166-0.483-0.3-0.75-0.399
		c-0.233-0.066-0.483-0.101-0.75-0.101c-0.067,0-0.117,0-0.15,0c-0.066,0-0.116,0-0.15,0c-0.333,0.034-0.633,0.134-0.899,0.301
		c-0.267,0.166-0.5,0.383-0.7,0.649l-17.05,22.75c-0.2,0.233-0.333,0.467-0.4,0.7c-0.1,0.233-0.15,0.467-0.15,0.7
		s0.05,0.483,0.15,0.75c0.067,0.233,0.2,0.467,0.4,0.7l17.05,22.75c0.2,0.267,0.434,0.483,0.7,0.649
		c0.267,0.134,0.566,0.217,0.899,0.25c0.034,0.033,0.084,0.05,0.15,0.05c0.033,0,0.083,0,0.15,0c0.267,0,0.517-0.05,0.75-0.149
		c0.267-0.066,0.517-0.184,0.75-0.351l3.85-2.899c0.267-0.2,0.483-0.434,0.65-0.7c0.166-0.267,0.267-0.566,0.3-0.9
		c0.033-0.3,0.017-0.6-0.05-0.899c-0.101-0.3-0.25-0.601-0.45-0.9l-13.75-18.35l13.75-18.351c0.2-0.267,0.35-0.55,0.45-0.85
		c0.066-0.3,0.083-0.616,0.05-0.95C200.417,172.467,200.316,172.167,200.15,171.9z M235.9,122.3c0.199,0.133,0.366,0.284,0.5,0.45
		l23.649,23.6c0.167,0.167,0.316,0.351,0.45,0.551c0.134,0.199,0.283,0.433,0.45,0.699c0.133,0.267,0.267,0.551,0.399,0.851
		c0.134,0.3,0.25,0.633,0.351,1H233.35v-28.4c0.367,0.133,0.7,0.267,1,0.4c0.301,0.133,0.584,0.267,0.851,0.4
		S235.7,122.133,235.9,122.3z M232.45,110.9c-0.533-0.066-1.05-0.1-1.55-0.1h-67.65c-0.5,0-0.983,0.05-1.45,0.15
		c-0.466,0.066-0.917,0.2-1.35,0.4c-0.434,0.167-0.833,0.383-1.2,0.65c-0.4,0.267-0.783,0.567-1.15,0.9
		c-0.333,0.367-0.633,0.75-0.9,1.15c-0.267,0.367-0.483,0.767-0.65,1.2c-0.2,0.433-0.333,0.883-0.4,1.35
		c-0.1,0.467-0.15,0.95-0.15,1.45v120.8c0,0.534,0.05,1.034,0.15,1.5c0.067,0.467,0.2,0.9,0.4,1.301
		c0.167,0.433,0.383,0.85,0.65,1.25c0.267,0.399,0.566,0.767,0.9,1.1c0.367,0.366,0.75,0.684,1.15,0.95
		c0.367,0.267,0.767,0.483,1.2,0.649c0.433,0.167,0.883,0.301,1.35,0.4c0.467,0.1,0.95,0.15,1.45,0.15h101.5
		c0.5,0,0.983-0.051,1.45-0.15s0.916-0.233,1.35-0.4c0.434-0.166,0.834-0.383,1.2-0.649c0.4-0.267,0.783-0.584,1.15-0.95
		c0.333-0.333,0.633-0.7,0.899-1.1c0.267-0.4,0.483-0.817,0.65-1.25c0.2-0.4,0.333-0.834,0.399-1.301
		c0.101-0.466,0.15-0.966,0.15-1.5V151.9c0-0.5-0.033-1.017-0.1-1.551c-0.067-0.533-0.167-1.083-0.301-1.649
		c-0.1-0.533-0.25-1.101-0.449-1.7c-0.2-0.566-0.417-1.15-0.65-1.75c-0.267-0.6-0.533-1.184-0.8-1.75
		c-0.3-0.533-0.601-1.033-0.9-1.5c-0.3-0.5-0.6-0.95-0.899-1.35c-0.334-0.433-0.684-0.816-1.051-1.15l-23.55-23.55
		c-0.366-0.367-0.75-0.717-1.149-1.05c-0.434-0.333-0.884-0.65-1.351-0.95c-0.467-0.3-0.983-0.583-1.55-0.85
		c-0.533-0.267-1.1-0.533-1.7-0.8c-0.6-0.233-1.184-0.45-1.75-0.65c-0.6-0.2-1.166-0.35-1.7-0.45
		C233.533,111.067,232.983,110.967,232.45,110.9z"/>
	<path fill-rule="evenodd" clip-rule="evenodd" fill="#D0D0D0" d="M379.95,35.5h-186l-10-28.3H61.25L50.3,35.5H0V10
		C0,3.333,3.333,0,10,0h359.95c6.666,0,10,3.333,10,10V35.5z M42.85,21.6c0.833-0.833,1.25-1.833,1.25-3c0-1.167-0.417-2.167-1.25-3
		c-0.8-0.8-1.783-1.2-2.95-1.2c-1.167,0-2.183,0.4-3.05,1.2c-0.8,0.833-1.2,1.833-1.2,3c0,1.167,0.4,2.167,1.2,3
		c0.867,0.833,1.883,1.25,3.05,1.25C41.067,22.85,42.05,22.433,42.85,21.6z M25.35,21.6c0.833,0.833,1.85,1.25,3.05,1.25
		c1.167,0,2.15-0.417,2.95-1.25c0.833-0.833,1.25-1.833,1.25-3c0-1.167-0.417-2.167-1.25-3c-0.8-0.8-1.783-1.2-2.95-1.2
		c-1.2,0-2.217,0.4-3.05,1.2c-0.8,0.833-1.2,1.833-1.2,3C24.15,19.767,24.55,20.767,25.35,21.6z M12.7,18.45
		c0,1.167,0.4,2.15,1.2,2.95c0.833,0.867,1.85,1.3,3.05,1.3c1.167,0,2.15-0.434,2.95-1.3c0.833-0.8,1.25-1.783,1.25-2.95
		c0-1.167-0.417-2.167-1.25-3c-0.8-0.833-1.783-1.25-2.95-1.25c-1.2,0-2.217,0.417-3.05,1.25C13.1,16.283,12.7,17.283,12.7,18.45z"
		/>
	<path fill-rule="evenodd" clip-rule="evenodd" fill="#494949" d="M60,80v200H10c-6.667,0-10-3.333-10-10V80H60z"/>
	<path fill-rule="evenodd" clip-rule="evenodd" fill="#77B44E" d="M42.85,21.6c-0.8,0.833-1.783,1.25-2.95,1.25
		c-1.167,0-2.183-0.417-3.05-1.25c-0.8-0.833-1.2-1.833-1.2-3c0-1.167,0.4-2.167,1.2-3c0.867-0.8,1.883-1.2,3.05-1.2
		c1.167,0,2.15,0.4,2.95,1.2c0.833,0.833,1.25,1.833,1.25,3C44.1,19.767,43.683,20.767,42.85,21.6z"/>
	<path fill-rule="evenodd" clip-rule="evenodd" fill="#DEAA5A" d="M25.35,21.6c-0.8-0.833-1.2-1.833-1.2-3c0-1.167,0.4-2.167,1.2-3
		c0.833-0.8,1.85-1.2,3.05-1.2c1.167,0,2.15,0.4,2.95,1.2c0.833,0.833,1.25,1.833,1.25,3c0,1.167-0.417,2.167-1.25,3
		c-0.8,0.833-1.783,1.25-2.95,1.25C27.2,22.85,26.183,22.433,25.35,21.6z"/>
	<path fill-rule="evenodd" clip-rule="evenodd" fill="#D6635D" d="M12.7,18.45c0-1.167,0.4-2.167,1.2-3
		c0.833-0.833,1.85-1.25,3.05-1.25c1.167,0,2.15,0.417,2.95,1.25c0.833,0.833,1.25,1.833,1.25,3c0,1.167-0.417,2.15-1.25,2.95
		c-0.8,0.867-1.783,1.3-2.95,1.3c-1.2,0-2.217-0.434-3.05-1.3C13.1,20.6,12.7,19.617,12.7,18.45z"/>
	<linearGradient id="SVGID_1_" gradientUnits="userSpaceOnUse" x1="0" y1="143.0752" x2="379.9502" y2="143.0752">
		<stop  offset="0" style="stop-color:#45487C"/>
		<stop  offset="1" style="stop-color:#E56769"/>
	</linearGradient>
	<path fill-rule="evenodd" clip-rule="evenodd" fill="url(#SVGID_1_)" d="M379.95,80H60H0V40h379.95V80z M232.45,110.9
		c0.533,0.067,1.083,0.167,1.649,0.3c0.534,0.1,1.101,0.25,1.7,0.45c0.566,0.2,1.15,0.417,1.75,0.65
		c0.601,0.267,1.167,0.534,1.7,0.8c0.566,0.267,1.083,0.55,1.55,0.85c0.467,0.3,0.917,0.617,1.351,0.95
		c0.399,0.333,0.783,0.684,1.149,1.05l23.55,23.55c0.367,0.333,0.717,0.717,1.051,1.15c0.3,0.4,0.6,0.85,0.899,1.35
		c0.3,0.467,0.601,0.967,0.9,1.5c0.267,0.566,0.533,1.15,0.8,1.75c0.233,0.6,0.45,1.184,0.65,1.75c0.199,0.6,0.35,1.167,0.449,1.7
		c0.134,0.566,0.233,1.116,0.301,1.649c0.066,0.534,0.1,1.051,0.1,1.551v86.949c0,0.534-0.05,1.034-0.15,1.5
		c-0.066,0.467-0.199,0.9-0.399,1.301c-0.167,0.433-0.384,0.85-0.65,1.25c-0.267,0.399-0.566,0.767-0.899,1.1
		c-0.367,0.366-0.75,0.684-1.15,0.95c-0.366,0.267-0.767,0.483-1.2,0.649c-0.434,0.167-0.883,0.301-1.35,0.4s-0.95,0.15-1.45,0.15
		h-101.5c-0.5,0-0.983-0.051-1.45-0.15c-0.466-0.1-0.917-0.233-1.35-0.4c-0.434-0.166-0.833-0.383-1.2-0.649
		c-0.4-0.267-0.783-0.584-1.15-0.95c-0.333-0.333-0.633-0.7-0.9-1.1c-0.267-0.4-0.483-0.817-0.65-1.25
		c-0.2-0.4-0.333-0.834-0.4-1.301c-0.1-0.466-0.15-0.966-0.15-1.5v-120.8c0-0.5,0.05-0.983,0.15-1.45
		c0.067-0.467,0.2-0.917,0.4-1.35c0.167-0.433,0.383-0.833,0.65-1.2c0.267-0.4,0.566-0.783,0.9-1.15
		c0.367-0.333,0.75-0.633,1.15-0.9c0.367-0.267,0.767-0.483,1.2-0.65c0.433-0.2,0.883-0.333,1.35-0.4c0.467-0.1,0.95-0.15,1.45-0.15
		h67.65C231.4,110.8,231.917,110.833,232.45,110.9z M235.9,122.3c-0.2-0.167-0.434-0.316-0.7-0.45s-0.55-0.267-0.851-0.4
		c-0.3-0.133-0.633-0.267-1-0.4v28.4H261.7c-0.101-0.367-0.217-0.7-0.351-1c-0.133-0.3-0.267-0.584-0.399-0.851
		c-0.167-0.267-0.316-0.5-0.45-0.699c-0.134-0.2-0.283-0.384-0.45-0.551l-23.649-23.6C236.267,122.583,236.1,122.433,235.9,122.3z
		 M200.15,171.9c0.166,0.267,0.267,0.566,0.3,0.899c0.033,0.334,0.017,0.65-0.05,0.95c-0.101,0.3-0.25,0.583-0.45,0.85L186.2,192.95
		l13.75,18.35c0.2,0.3,0.35,0.601,0.45,0.9c0.066,0.3,0.083,0.6,0.05,0.899c-0.033,0.334-0.134,0.634-0.3,0.9
		c-0.167,0.267-0.384,0.5-0.65,0.7l-3.85,2.899c-0.233,0.167-0.483,0.284-0.75,0.351c-0.233,0.1-0.483,0.149-0.75,0.149
		c-0.067,0-0.117,0-0.15,0c-0.066,0-0.116-0.017-0.15-0.05c-0.333-0.033-0.633-0.116-0.899-0.25c-0.267-0.166-0.5-0.383-0.7-0.649
		L175.2,194.4c-0.2-0.233-0.333-0.467-0.4-0.7c-0.1-0.267-0.15-0.517-0.15-0.75s0.05-0.467,0.15-0.7c0.067-0.233,0.2-0.467,0.4-0.7
		l17.05-22.75c0.2-0.267,0.434-0.483,0.7-0.649c0.267-0.167,0.566-0.267,0.899-0.301c0.034,0,0.084,0,0.15,0c0.033,0,0.083,0,0.15,0
		c0.267,0,0.517,0.034,0.75,0.101c0.267,0.1,0.517,0.233,0.75,0.399l3.85,2.851C199.767,171.4,199.983,171.634,200.15,171.9z
		 M223.65,151.9v-31.45h-58v116h96.7v-77.3H230.9c-0.5,0-0.983-0.051-1.45-0.15s-0.917-0.233-1.351-0.4
		c-0.399-0.166-0.8-0.383-1.199-0.649c-0.4-0.267-0.767-0.584-1.101-0.95c-0.366-0.333-0.684-0.7-0.95-1.1
		c-0.267-0.4-0.483-0.801-0.649-1.2c-0.167-0.434-0.3-0.884-0.4-1.351C223.7,152.884,223.65,152.4,223.65,151.9z M223.55,160.55
		c0.2,0.3,0.334,0.601,0.4,0.9s0.066,0.616,0,0.95l-10.4,62.75c-0.066,0.3-0.166,0.583-0.3,0.85c-0.167,0.267-0.4,0.5-0.7,0.7
		c-0.2,0.133-0.416,0.233-0.649,0.3c-0.233,0.1-0.483,0.15-0.75,0.15c-0.067,0-0.134-0.017-0.2-0.051c-0.066,0-0.134,0-0.2,0
		l-4.75-0.75c-0.333-0.066-0.634-0.183-0.9-0.35c-0.233-0.167-0.449-0.384-0.649-0.65s-0.334-0.55-0.4-0.85s-0.066-0.616,0-0.95
		l10.4-62.75c0.033-0.333,0.133-0.633,0.3-0.899c0.167-0.233,0.4-0.45,0.7-0.65c0.2-0.167,0.416-0.283,0.649-0.35
		c0.233-0.067,0.483-0.101,0.75-0.101c0.067,0,0.134,0,0.2,0s0.134,0.017,0.2,0.05l4.75,0.75c0.333,0.034,0.634,0.134,0.9,0.301
		C223.134,160.066,223.35,160.283,223.55,160.55z M232.35,168.35c0.233-0.166,0.467-0.3,0.7-0.399
		c0.267-0.066,0.533-0.101,0.8-0.101c0.067,0,0.117,0,0.15,0c0.066,0,0.116,0,0.15,0c0.333,0.034,0.633,0.134,0.899,0.301
		c0.267,0.166,0.5,0.383,0.7,0.649l17.05,22.75c0.2,0.233,0.334,0.467,0.4,0.7c0.1,0.233,0.149,0.467,0.149,0.7
		s-0.05,0.483-0.149,0.75c-0.066,0.233-0.2,0.467-0.4,0.7l-17.05,22.75c-0.2,0.267-0.434,0.483-0.7,0.649
		c-0.267,0.134-0.566,0.217-0.899,0.25c-0.034,0.033-0.084,0.05-0.15,0.05c-0.033,0-0.083,0-0.15,0c-0.267,0-0.533-0.05-0.8-0.149
		c-0.233-0.066-0.467-0.184-0.7-0.351l-3.85-2.899c-0.267-0.2-0.483-0.434-0.65-0.7c-0.166-0.267-0.267-0.566-0.3-0.9
		c-0.033-0.3-0.017-0.6,0.05-0.899c0.101-0.3,0.25-0.601,0.45-0.9l13.75-18.35L228.05,174.6c-0.2-0.267-0.35-0.55-0.45-0.85
		c-0.066-0.3-0.083-0.616-0.05-0.95c0.033-0.333,0.134-0.633,0.3-0.899c0.167-0.267,0.384-0.5,0.65-0.7L232.35,168.35z"/>
</g>
</svg>
