<?xml version="1.0" standalone="no"?>
<!DOCTYPE svg PUBLIC "-//W3C//DTD SVG 20010904//EN"
 "http://www.w3.org/TR/2001/REC-SVG-20010904/DTD/svg10.dtd">
<svg version="1.0" xmlns="http://www.w3.org/2000/svg"
 width="696.000000pt" height="696.000000pt" viewBox="0 0 696.000000 696.000000"
 preserveAspectRatio="xMidYMid meet">
<metadata>
Created by potrace 1.11, written by Peter Selinger 2001-2013
</metadata>
<g transform="translate(0.000000,696.000000) scale(0.100000,-0.100000)"
fill="#000000" stroke="none">
<path d="M3355 6879 c-139 -87 -148 -93 -239 -172 -163 -141 -337 -352 -421
-512 -14 -27 -42 -79 -61 -115 -69 -129 -173 -415 -189 -520 -19 -126 -39
-210 -51 -210 -8 0 -35 10 -61 21 -77 35 -188 75 -228 82 -29 6 -78 18 -95 24
-8 3 -26 7 -40 9 -14 2 -41 6 -60 10 -55 10 -81 14 -140 19 -30 2 -55 5 -55 6
0 1 -69 2 -152 3 -84 1 -153 -1 -153 -4 0 -3 -21 -5 -48 -6 -26 0 -65 -3 -87
-7 -22 -3 -58 -9 -80 -12 -152 -24 -578 -167 -605 -203 -3 -4 -31 -20 -63 -37
l-59 -30 6 -135 c6 -158 11 -209 26 -304 12 -72 61 -263 79 -307 12 -30 24
-62 25 -69 1 -3 7 -14 13 -25 6 -11 11 -23 12 -28 1 -17 78 -168 128 -251 29
-49 53 -90 53 -92 0 -5 103 -145 135 -184 79 -97 301 -299 373 -339 21 -12 11
-23 -71 -85 -358 -269 -636 -727 -736 -1213 -27 -132 -35 -206 -35 -347 l-1
-120 150 -75 c136 -69 307 -134 425 -162 96 -22 187 -40 225 -44 22 -2 63 -7
90 -10 82 -11 430 -6 430 5 0 1 16 3 35 4 19 1 49 6 65 9 17 4 42 9 56 11 93
15 311 83 420 129 l36 16 16 -97 c21 -128 26 -154 33 -172 3 -8 8 -26 10 -40
12 -66 92 -278 150 -395 63 -128 75 -150 123 -230 89 -146 296 -370 446 -481
44 -32 82 -62 83 -66 2 -5 8 -8 13 -8 12 0 93 -52 97 -62 2 -5 12 -8 23 -8 10
0 19 -4 19 -8 0 -4 17 -15 37 -25 37 -16 38 -16 93 15 172 96 427 316 563 485
153 191 314 499 363 693 2 8 12 49 23 90 10 41 22 93 25 115 4 22 9 51 11 65
2 14 7 45 10 70 4 25 9 48 13 52 4 3 25 -2 47 -13 38 -19 266 -95 309 -103 12
-2 44 -10 71 -16 28 -7 70 -14 95 -16 25 -3 52 -7 60 -10 8 -3 53 -8 100 -11
213 -14 402 -3 570 32 14 3 36 7 50 10 50 9 231 65 305 95 88 35 228 104 268
132 15 11 27 16 27 12 0 -4 6 0 13 10 22 30 11 310 -18 461 -9 44 -17 90 -20
103 -6 38 -65 223 -86 269 -10 24 -19 45 -19 48 0 7 -91 191 -119 239 -120
209 -298 412 -503 574 -38 30 -68 55 -68 57 0 2 37 34 83 71 78 64 265 246
316 308 64 78 222 311 211 311 -2 0 11 25 28 55 56 100 142 341 167 470 2 8 4
15 5 15 2 0 9 35 15 75 3 19 7 46 10 60 13 67 25 365 14 373 -81 56 -293 167
-320 167 -5 0 -23 7 -39 15 -25 13 -208 69 -264 81 -31 7 -117 23 -151 28
-161 26 -436 26 -605 0 -128 -20 -264 -53 -360 -88 -25 -10 -49 -18 -55 -20
-14 -4 -43 -16 -92 -37 -30 -13 -43 -14 -44 -6 -1 7 -2 26 -4 42 -3 37 -12
105 -19 137 -31 145 -80 312 -118 397 -46 105 -92 198 -112 226 -11 17 -20 31
-18 33 2 2 -13 30 -57 97 -31 48 -27 42 -102 140 -64 83 -221 244 -297 305
-24 19 -56 45 -70 57 -15 13 -31 23 -36 23 -4 0 -25 14 -46 30 -21 17 -41 30
-45 30 -3 0 -25 13 -48 29 -23 15 -56 35 -73 44 l-31 16 -128 -80z m199 -249
c117 -77 244 -189 333 -294 89 -103 208 -290 268 -421 20 -44 41 -88 46 -98
17 -32 82 -253 94 -317 1 -8 6 -33 9 -54 4 -22 10 -71 13 -110 5 -82 5 -75 4
-146 0 -30 0 -62 0 -70 2 -24 -11 -214 -16 -230 -2 -8 -6 -33 -9 -55 -7 -57
-26 -146 -36 -170 -5 -11 -16 -45 -26 -75 -9 -30 -24 -71 -32 -90 -8 -19 -14
-36 -13 -37 2 -7 -113 -228 -121 -231 -4 -2 -8 -7 -8 -12 0 -12 -62 -111 -82
-132 -10 -10 -18 -22 -18 -26 0 -5 -8 -17 -18 -28 -9 -10 -28 -32 -40 -49 -66
-85 -294 -297 -306 -284 -2 2 -6 22 -10 44 -29 200 -95 427 -172 591 -20 43
-38 81 -38 84 -7 27 -168 283 -200 316 -6 6 -29 34 -51 62 -40 50 -239 250
-283 285 -13 10 -47 35 -75 55 -29 20 -53 40 -55 44 -2 5 -9 8 -16 8 -7 0 -22
9 -34 20 -17 16 -21 32 -22 88 -2 114 -1 125 29 243 57 224 155 449 276 628
94 140 91 137 225 271 95 95 275 238 302 240 3 0 41 -23 82 -50z m-1874 -1334
c112 -6 282 -34 377 -63 32 -9 60 -17 63 -18 15 -3 91 -30 130 -47 129 -56
172 -78 258 -135 52 -35 98 -63 102 -63 5 0 10 -3 12 -7 2 -5 22 -21 45 -36
60 -42 272 -251 330 -327 64 -84 155 -220 148 -220 -4 0 2 -12 13 -27 52 -77
148 -335 176 -475 29 -145 33 -174 26 -182 -6 -6 -14 -5 -22 1 -7 5 -33 16
-58 23 -25 7 -49 17 -55 20 -8 6 -24 11 -75 25 -3 0 -30 9 -61 18 -233 70
-568 95 -829 63 -81 -11 -106 -14 -130 -20 -14 -3 -38 -8 -53 -10 -35 -6 -135
-34 -162 -45 -11 -5 -58 -24 -105 -41 -47 -18 -119 -50 -162 -71 l-76 -37 -39
20 c-123 65 -348 275 -459 428 -218 301 -354 656 -356 925 -1 108 -6 99 85
138 165 71 324 121 457 143 64 11 84 13 185 20 55 3 102 8 103 10 2 1 9 1 15
-1 7 -2 59 -6 117 -9z m3925 -20 c91 -9 122 -14 146 -21 11 -4 31 -8 42 -10
88 -12 321 -91 429 -146 l37 -19 -4 -88 c-6 -104 -9 -123 -36 -249 -22 -106
-68 -250 -92 -297 -9 -16 -14 -33 -11 -38 3 -4 0 -8 -5 -8 -6 0 -11 -6 -11
-13 0 -20 -68 -145 -116 -215 -24 -35 -44 -67 -44 -72 0 -4 -3 -10 -7 -12 -5
-1 -34 -34 -65 -73 -72 -89 -138 -159 -209 -221 -89 -78 -109 -94 -118 -94 -5
0 -11 -3 -13 -7 -15 -34 -325 -201 -458 -246 -112 -38 -279 -78 -390 -93 -59
-8 -385 -9 -430 -2 -19 4 -66 11 -104 18 -38 6 -72 13 -76 15 -3 2 -19 6 -34
9 -55 10 -197 55 -289 91 -18 7 -18 7 92 93 45 35 225 214 279 277 68 78 170
239 233 365 49 98 123 279 135 330 2 8 11 42 20 75 20 76 55 270 52 294 0 3 1
8 2 11 2 5 6 63 9 122 1 28 0 27 114 78 155 68 405 134 555 146 42 3 78 7 79
8 5 4 229 -2 288 -8z m-2892 -1661 c34 -3 73 -7 87 -9 90 -13 126 -19 133 -23
4 -2 20 -7 35 -9 64 -11 272 -89 272 -102 0 -4 -19 -20 -41 -35 -22 -16 -76
-63 -121 -105 -219 -208 -296 -308 -448 -587 -82 -152 -173 -436 -196 -615 -2
-19 -7 -51 -10 -70 -7 -39 -11 -87 -13 -141 -1 -33 -5 -37 -53 -59 -29 -13
-71 -31 -93 -41 -61 -28 -275 -96 -324 -103 -23 -3 -45 -7 -49 -10 -7 -4 -51
-11 -147 -23 -130 -17 -422 -3 -540 26 -22 5 -53 13 -70 16 -81 16 -270 84
-382 137 l-44 21 5 56 c3 31 8 65 10 76 2 12 8 48 12 80 8 63 10 73 14 78 1 1
3 9 5 17 17 83 48 185 83 275 22 54 150 306 166 325 7 8 16 22 19 31 12 35
144 198 221 274 101 101 157 146 271 223 87 58 305 178 305 168 0 -3 15 3 33
13 30 17 169 66 215 76 12 3 32 7 44 10 12 2 40 7 62 11 22 3 43 7 46 9 3 2
50 6 105 10 55 4 101 8 103 10 4 4 219 -3 285 -10z m2789 -327 c117 -89 132
-102 234 -203 112 -111 246 -291 291 -390 7 -16 17 -37 22 -45 16 -26 91 -195
91 -203 0 -3 5 -18 12 -34 6 -15 12 -32 13 -38 2 -5 10 -35 19 -65 31 -100 63
-275 65 -353 l2 -77 -58 -26 c-32 -14 -71 -32 -88 -40 -40 -18 -136 -55 -155
-60 -113 -29 -180 -45 -200 -49 -14 -2 -36 -7 -49 -9 -84 -18 -336 -25 -458
-13 -54 5 -116 15 -198 31 -71 14 -237 65 -300 92 -22 10 -45 18 -51 20 -5 1
-54 23 -107 49 -85 41 -131 71 -262 166 -44 33 -306 297 -340 344 -17 22 -32
42 -36 45 -17 16 -123 187 -157 255 -57 115 -122 303 -143 410 -4 22 -10 51
-13 64 -10 43 -16 113 -10 123 4 5 10 5 17 0 7 -5 30 -15 52 -22 22 -7 45 -16
50 -20 6 -4 33 -13 60 -20 28 -7 55 -16 60 -19 6 -3 15 -6 20 -7 6 -1 39 -10
75 -19 36 -9 74 -18 85 -20 260 -44 482 -51 693 -19 146 22 385 89 506 142 27
12 54 22 61 22 8 0 15 3 17 8 4 9 69 40 85 41 7 1 50 -27 95 -61z m-2121 -65
c0 -16 2 -37 4 -48 2 -11 7 -40 10 -65 3 -25 8 -53 11 -63 3 -11 7 -29 9 -40
24 -165 200 -571 304 -699 5 -7 40 -51 77 -98 106 -135 247 -269 429 -407 6
-5 29 -21 53 -37 23 -16 42 -35 43 -42 1 -25 0 -104 -1 -106 -2 -4 -6 -28 -16
-88 -4 -25 -8 -49 -10 -55 -1 -5 -5 -23 -7 -38 -21 -107 -137 -427 -159 -435
-4 -2 -8 -9 -8 -17 0 -18 -45 -96 -121 -210 -105 -157 -244 -292 -480 -468
l-35 -26 -50 37 c-28 20 -63 46 -78 57 -16 11 -40 30 -54 43 -14 12 -28 22
-32 22 -16 0 -187 185 -251 270 -38 52 -74 100 -79 107 -6 7 -10 15 -10 19 0
3 -8 18 -19 32 -46 66 -169 324 -185 387 -2 6 -9 30 -16 55 -43 146 -60 241
-65 365 -3 61 -5 112 -6 115 -1 3 -1 9 0 14 1 5 3 45 5 90 4 94 12 152 33 256
18 90 16 84 32 140 7 25 14 52 16 60 8 38 61 173 97 245 101 201 192 328 344
481 93 93 188 173 207 174 4 0 7 -12 8 -27z"/>
</g>
</svg>
