<?xml version="1.0" standalone="no"?>
<!DOCTYPE svg PUBLIC "-//W3C//DTD SVG 1.1//EN" "http://www.w3.org/Graphics/SVG/1.1/DTD/svg11.dtd">
<svg xmlns="http://www.w3.org/2000/svg">
<metadata>Copyright (C) 2021 by original authors @ fontello.com</metadata>
<defs>
<font id="fontello" horiz-adv-x="1000" >
<font-face font-family="fontello" font-weight="400" font-stretch="normal" units-per-em="1000" ascent="850" descent="-150" />
<missing-glyph horiz-adv-x="1000" />
<glyph glyph-name="left-chevron" unicode="&#xe800;" d="M655 671a42 42 0 0 0 0-59l-263-262 263-262a42 42 0 0 0-59-59l-292 292a42 42 0 0 0 0 59l292 291a42 42 0 0 0 59 0z" horiz-adv-x="1000" />

<glyph glyph-name="right-chevron" unicode="&#xe801;" d="M346 671a42 42 0 0 0 59 0l291-291a42 42 0 0 0 0-59l-291-292a42 42 0 0 0-59 59l262 262-262 262a42 42 0 0 0 0 59z" horiz-adv-x="1000" />

<glyph glyph-name="up-chevron" unicode="&#xe802;" d="M500 558a42 42 0 0 0 30-12l291-291a42 42 0 0 0-59-59l-262 262-262-262a42 42 0 0 0-59 59l292 291a42 42 0 0 0 29 12z" horiz-adv-x="1000" />

<glyph glyph-name="down-chevron" unicode="&#xe803;" d="M179 505a42 42 0 0 0 59 0l262-263 262 263a42 42 0 1 0 59-59l-291-292a42 42 0 0 0-59 0l-292 292a42 42 0 0 0 0 59z" horiz-adv-x="1000" />

<glyph glyph-name="github-circled-1" unicode="&#xe804;" d="M429 779q116 0 215-58t156-156 57-215q0-140-82-252t-211-155q-15-3-22 4t-7 17q0 1 0 43t0 75q0 54-29 79 32 3 57 10t53 22 45 37 30 58 11 84q0 67-44 115 21 51-4 114-16 5-46-6t-51-25l-21-13q-52 15-107 15t-108-15q-8 6-23 15t-47 22-47 7q-25-63-5-114-44-48-44-115 0-47 12-83t29-59 45-37 52-22 57-10q-21-20-27-58-12-5-25-8t-32-3-36 12-31 35q-11 18-27 29t-28 14l-11 1q-12 0-16-2t-3-7 5-8 7-6l4-3q12-6 24-21t18-29l6-13q7-21 24-34t37-17 39-3 31 1l13 3q0-22 0-50t1-30q0-10-8-17t-22-4q-129 43-211 155t-82 252q0 117 58 215t155 156 216 58z m-267-616q2 4-3 7-6 1-8-1-1-4 4-7 5-3 7 1z m18-19q4 3-1 9-6 5-9 2-4-3 1-9 5-6 9-2z m16-25q6 4 0 11-4 7-9 3-5-3 0-10t9-4z m24-23q4 4-2 10-7 7-11 2-5-5 2-11 6-6 11-1z m32-14q1 6-8 9-8 2-10-4t7-9q8-3 11 4z m35-3q0 7-10 6-9 0-9-6 0-7 10-6 9 0 9 6z m32 5q-1 7-10 5-9-1-8-8t10-4 8 7z" horiz-adv-x="857.1" />

<glyph glyph-name="instagram-1" unicode="&#xe805;" d="M571 350q0 59-41 101t-101 42-101-42-42-101 42-101 101-42 101 42 41 101z m77 0q0-91-64-156t-155-64-156 64-64 156 64 156 156 64 155-64 64-156z m61 229q0-21-15-36t-37-15-36 15-15 36 15 36 36 15 37-15 15-36z m-280 123q-4 0-43 0t-59 0-54-2-57-5-40-11q-28-11-49-32t-33-49q-6-16-10-40t-6-58-1-53 0-59 0-43 0-43 0-59 1-53 6-58 10-40q12-28 33-49t49-32q16-6 40-11t57-5 54-2 59 0 43 0 42 0 59 0 54 2 58 5 39 11q28 11 50 32t32 49q6 16 10 40t6 58 1 53 0 59 0 43 0 43 0 59-1 53-6 58-10 40q-11 28-32 49t-50 32q-16 6-39 11t-58 5-54 2-59 0-42 0z m428-352q0-128-3-177-5-116-69-180t-179-69q-50-3-177-3t-177 3q-116 6-180 69t-69 180q-3 49-3 177t3 177q5 116 69 180t180 69q49 3 177 3t177-3q116-6 179-69t69-180q3-49 3-177z" horiz-adv-x="857.1" />

<glyph glyph-name="book-bold" unicode="&#xe806;" d="M813 772h-532c-77 0-140-63-140-141v-687c0-26 21-47 47-47h562c26 0 47 21 47 47s-21 47-47 47h-513c7 18 24 31 44 31h532c25 0 46 21 46 47v656c0 26-21 47-46 47z m-47-656h-485c-16 0-32-3-47-9v524c0 26 22 47 47 47h485v-562z m-106 379h-316c-26 0-47 21-47 47s21 47 47 47h316c26 0 47-21 47-47s-21-47-47-47z" horiz-adv-x="1000" />

<glyph glyph-name="arrows-clockwise-bold" unicode="&#xe807;" d="M923 648v-187c0-2 0-4 0-5 0-1-1-3-1-4 0 0 0-1 0-2 0 0 0 0-1-1 0-1 0-1-1-2 0-2-1-3-1-4-1-1-1-2-1-2-1-3-3-6-5-8 0-1 0-1-1-2-1-1-2-2-3-3-2-1-3-3-4-4-1 0-1-1-2-1-1-1-1-1-3-2 0 0 0 0-1-1-1 0-2-1-4-2-1 0-1 0-2-1 0 0-1 0-2 0 0-1-1-1-1-1-2 0-3-1-4-1 0 0-1 0-2 0-1-1-3-1-4-1-1 0-3-1-5-1h-187c-26 0-47 21-47 47 0 26 21 47 47 47h74l-53 53c-115 115-303 115-419 0-19-19-49-19-67 0s-18 48 0 66c152 153 400 153 552 0l53-53v75c0 25 21 47 47 47 27 0 48-21 48-47z m-147-574c-76-76-176-115-276-115s-200 39-276 114l-53 53v-74c0-26-21-47-47-47-26 0-47 21-47 47v188c0 1 0 3 0 4 0 1 1 3 1 4 0 0 0 1 1 2 0 0 0 0 0 1 0 1 0 1 1 2 0 1 0 2 1 3 0 0 0 1 0 1 1 1 1 2 1 2 0 1 1 2 1 2 1 2 3 4 4 6 0 1 1 1 1 2 1 1 2 2 3 3 2 1 3 2 4 3 0 1 1 2 2 2 2 1 3 3 6 4 1 0 1 0 2 1 1 0 1 0 2 0 0 1 1 1 2 1 1 1 2 1 2 1 1 0 2 0 2 1 1 0 1 0 2 0 0 0 1 1 1 1 2 0 3 0 4 0 2 0 3 1 5 1h188c25 0 46-21 46-47 0-26-21-47-46-47h-75l53-53c116-115 304-115 420 0 18 19 48 19 66 0 18-18 18-48-1-66z" horiz-adv-x="1000" />

<glyph glyph-name="mail" unicode="&#xe808;" d="M108 633a125 125 0 0 0 100 50h584a125 125 0 0 0 125-125v-375a125 125 0 0 0-125-125h-584a125 125 0 0 0-125 125v375c0 28 10 54 25 75z m98-33l264-281a42 42 0 0 1 61 0l263 281-2 0h-584l-2 0z m627-80l-242-258a125 125 0 0 0-182 0l-242 258v-337a42 42 0 0 1 41-41h584a42 42 0 0 1 41 41v337z" horiz-adv-x="1000" />

<glyph glyph-name="search" unicode="&#xe809;" d="M417 642a208 208 0 1 1 0-417 208 208 0 0 1 0 417z m-292-209a292 292 0 1 0 525-174l213-213a42 42 0 0 0-59-59l-213 213a292 292 0 0 0-466 233z" horiz-adv-x="1000" />

<glyph glyph-name="phone" unicode="&#xe80a;" d="M384 234c96-97 186-151 253-181 58-26 127-5 180 48l13 13-148 93c-28-40-81-64-133-42-41 17-94 46-141 93s-76 100-93 141c-22 52 2 105 42 133l-93 148-13-13c-53-53-74-122-48-180 30-67 84-157 181-253z m219-257c-76 34-174 94-278 198-104 104-164 202-198 278-45 100-4 204 65 273l13 13a83 83 0 0 0 129-15l118-185a42 42 0 0 0-17-60l-26-13c-18-9-22-25-17-35 14-34 37-76 75-114 38-38 80-61 114-75 10-5 26-1 35 17l13 26a42 42 0 0 0 60 17l185-118a83 83 0 0 0 15-129l-13-13c-69-69-173-110-273-65z" horiz-adv-x="1000" />

<glyph glyph-name="pencil" unicode="&#xe80b;" d="M662 696a125 125 0 0 0 176 0l8-8a125 125 0 0 0 0-176l-73-73-410-410a42 42 0 0 0-19-11l-167-42a42 42 0 0 0-51 51l42 166a42 42 0 0 0 11 20l413 413 70 70z m118-59a42 42 0 0 1-59 0l-41-41 64-68 43 43a42 42 0 0 1 0 59l-7 7z m-95-168l-64 68-375-375-22-88 88 22 373 373z" horiz-adv-x="1000" />

<glyph glyph-name="check" unicode="&#xe80c;" d="M859 633a42 42 0 0 0 7-58l-416-542a42 42 0 0 0-63-4l-208 208a42 42 0 0 0 59 59l175-175 387 504a42 42 0 0 0 59 8z" horiz-adv-x="1000" />

<glyph glyph-name="x" unicode="&#xe80d;" d="M221 630a42 42 0 0 0 59 0l220-221 221 221a42 42 0 1 0 59-59l-221-221 221-220a42 42 0 0 0-59-59l-221 220-220-220a42 42 0 0 0-59 59l220 220-220 221a42 42 0 0 0 0 59z" horiz-adv-x="1000" />

<glyph glyph-name="solid-star" unicode="&#xe80e;" d="M452 678c18 42 78 42 96 0l82-190 207-20c45-4 63-61 29-91l-155-137 45-202c10-45-38-80-77-57l-179 106-178-106c-40-23-88 12-78 56l45 203-155 137c-34 30-16 87 29 91l207 20 82 190z" horiz-adv-x="1000" />

<glyph glyph-name="place-marker" unicode="&#xe80f;" d="M208 454c0 142 126 271 292 271s292-129 292-271c0-89-55-189-127-281-57-74-120-137-165-181-45 44-108 107-165 181-72 92-127 192-127 281z m292 354c-209 0-375-162-375-354 0-119 70-238 144-333 64-82 136-153 181-197 8-7 15-14 21-20a42 42 0 0 1 59 0c5 6 12 13 20 20 45 44 117 115 181 197 74 95 144 214 144 333 0 192-166 354-375 354z m0-479a104 104 0 1 1 0 209 104 104 0 0 1 0-209z" horiz-adv-x="1000" />

<glyph glyph-name="print" unicode="&#xe810;" d="M208 642a42 42 0 0 0 42 41h500a42 42 0 0 0 42-41v-250a125 125 0 0 0 125-125v-167a125 125 0 0 0-125-125h-584a125 125 0 0 0-125 125v167a125 125 0 0 0 125 125v250z m0-334a42 42 0 0 1-41-41v-167a42 42 0 0 1 41-42h584a42 42 0 0 1 41 42v167a42 42 0 0 1-41 41v-83a42 42 0 0 0-42-42h-500a42 42 0 0 0-42 42v83z m84 292v-333h416v333h-416z m83-125a42 42 0 0 0 42 42h166a42 42 0 1 0 0-84h-166a42 42 0 0 0-42 42z m0-125a42 42 0 0 0 42 42h166a42 42 0 1 0 0-84h-166a42 42 0 0 0-42 42z" horiz-adv-x="1000" />

<glyph glyph-name="plus" unicode="&#xe811;" d="M500 683a42 42 0 0 0 42-41v-250h250a42 42 0 1 0 0-84h-250v-250a42 42 0 1 0-84 0v250h-250a42 42 0 1 0 0 84h250v250a42 42 0 0 0 42 41z" horiz-adv-x="1000" />

<glyph glyph-name="twitter-1" unicode="&#xe812;" d="M904 622q-37-54-90-93 0-8 0-23 0-73-21-145t-64-139-103-117-144-82-181-30q-151 0-276 81 19-2 43-2 126 0 224 77-59 1-105 36t-64 89q19-3 34-3 24 0 48 6-63 13-104 62t-41 115v2q38-21 82-23-37 25-59 64t-22 86q0 49 25 91 68-83 164-133t208-55q-5 21-5 41 0 75 53 127t127 53q79 0 132-57 61 12 115 44-21-64-80-100 52 6 104 28z" horiz-adv-x="928.6" />

<glyph glyph-name="facebook-1" unicode="&#xe813;" d="M535 843v-147h-87q-48 0-65-20t-17-60v-106h164l-22-165h-142v-424h-171v424h-142v165h142v122q0 104 58 161t155 57q82 0 127-7z" horiz-adv-x="571.4" />

<glyph glyph-name="linkedin-1" unicode="&#xe814;" d="M195 501v-553h-184v553h184z m12 171q0-41-29-68t-75-27h-1q-46 0-74 27t-28 68q0 41 29 68t75 27 74-27 29-68z m650-407v-317h-183v296q0 59-23 92t-71 33q-35 0-58-19t-36-48q-6-17-6-45v-309h-184q1 223 1 361t0 165l-1 27h184v-80h-1q11 18 23 31t31 29 49 24 64 9q95 0 153-63t58-186z" horiz-adv-x="857.1" />

<glyph glyph-name="code-bold" unicode="&#xe815;" d="M250 147c-10 0-21 3-30 11l-188 156c-10 9-16 22-16 36 0 14 6 27 16 36l188 156c20 17 50 14 66-6 16-20 14-49-6-66l-144-120 144-120c20-17 22-46 6-66-9-11-23-17-36-17z m500 0c-13 0-27 6-36 17-16 20-14 49 6 66l144 120-144 120c-20 17-23 46-6 66 17 20 46 23 66 6l188-156c10-9 16-22 16-36 0-14-6-27-16-36l-188-156c-9-8-19-11-30-11z m-375-188c-5 0-10 1-16 3-24 9-37 36-28 60l250 688c9 24 35 37 60 28s37-36 28-60l-250-688c-7-19-25-31-44-31z" horiz-adv-x="1000" />

<glyph glyph-name="gear" unicode="&#xe816;" d="M417 767a42 42 0 0 1-42-42v-66a333 333 0 0 1-80-46l-57 33a42 42 0 0 1-57-15l-83-145a42 42 0 0 1 15-57l57-33a336 336 0 0 1 0-92l-57-33a42 42 0 0 1-15-57l83-144a42 42 0 0 1 57-16l57 33c24-19 51-34 80-46v-66a42 42 0 0 1 42-42h166a42 42 0 0 1 42 42v66a333 333 0 0 1 80 46l57-33a42 42 0 0 1 57 16l84 144a42 42 0 0 1-16 57l-57 33a336 336 0 0 1 0 92l57 33a42 42 0 0 1 16 57l-84 145a42 42 0 0 1-57 15l-57-33a333 333 0 0 1-80 46v66a42 42 0 0 1-42 42h-166z m41-137v53h84v-53a42 42 0 0 1 30-40 250 250 0 0 0 100-58 42 42 0 0 1 49-6l47 27 42-72-47-27a42 42 0 0 1-20-46 251 251 0 0 0 0-116 42 42 0 0 1 20-46l47-27-42-72-47 27a42 42 0 0 1-49-6 250 250 0 0 0-100-58 42 42 0 0 1-30-40v-53h-84v53a42 42 0 0 1-29 40 250 250 0 0 0-101 58 42 42 0 0 1-49 6l-47-27-41 72 46 27a42 42 0 0 1 20 46 251 251 0 0 0 0 116 42 42 0 0 1-20 46l-46 27 41 72 47-27a42 42 0 0 1 49 6 250 250 0 0 0 101 58 42 42 0 0 1 29 40z m-41-280a83 83 0 1 0 166 0 83 83 0 0 0-166 0z m83 167a167 167 0 1 1 0-334 167 167 0 0 1 0 334z" horiz-adv-x="1000" />

<glyph glyph-name="menu" unicode="&#xe817;" d="M167 642a42 42 0 0 1 0-84h666a42 42 0 1 1 0 84h-666z m-42-292a42 42 0 0 0 42 42h666a42 42 0 1 0 0-84h-666a42 42 0 0 0-42 42z m0-250a42 42 0 0 0 42 42h666a42 42 0 1 0 0-84h-666a42 42 0 0 0-42 42z" horiz-adv-x="1000" />

<glyph glyph-name="trash" unicode="&#xe81c;" d="M375 642a83 83 0 0 0 83 83h84a83 83 0 0 0 83-83v-42h167a42 42 0 1 0 0-83h-42v-417a125 125 0 0 0-125-125h-250a125 125 0 0 0-125 125v417h-42a42 42 0 0 0 0 83h167v42z m42-125h-84v-417a42 42 0 0 1 42-42h250a42 42 0 0 1 42 42v417h-250z m125 83h-84v42h84v-42z m-125-125a42 42 0 0 0 41-42v-291a42 42 0 1 0-83 0v291a42 42 0 0 0 42 42z m166 0a42 42 0 0 0 42-42v-291a42 42 0 1 0-83 0v291a42 42 0 0 0 41 42z" horiz-adv-x="1000" />

<glyph glyph-name="star" unicode="&#xe81d;" d="M452 678c18 42 78 42 96 0l82-190 207-20c45-4 63-61 29-91l-155-137 45-202c10-45-38-80-77-57l-179 106-178-106c-40-23-88 12-78 56l45 203-155 137c-34 30-16 87 29 91l207 20 82 190z m48-99l-64-147-9-23-25-2-159-15 120-106 18-16-5-24-35-156 138 81 21 13 21-13 138-81-35 156-5 24 18 16 120 106-159 15-25 2-9 23-64 147z" horiz-adv-x="1000" />

<glyph glyph-name="solid-pin" unicode="&#xe81e;" d="M271 642a42 42 0 0 0 42 41h375a42 42 0 1 0 0-83h-17l34-375h87a42 42 0 1 0 0-83h-250v-209a42 42 0 1 0-84 0v209h-250a42 42 0 1 0 0 83h87l34 375h-16a42 42 0 0 0-42 42z" horiz-adv-x="1000" />

<glyph glyph-name="list-check" unicode="&#xe81f;" d="M844 538h-688c-25 0-47 21-47 46s22 47 47 47h688c26 0 47-21 47-47s-21-46-47-46z m0-235h-688c-25 0-47 21-47 47s22 47 47 47h688c26 0 47-21 47-47s-21-47-47-47z m-281-234h-407c-25 0-47 21-47 47s22 47 47 47h407c25 0 46-22 46-47s-21-47-46-47z m422 147l-120-225c-2-4-6-8-9-11 0-1 0-1 0-1-10-9-22-14-34-14-12 0-24 5-33 14l-103 103c-19 19-19 49 0 67 18 18 48 18 66 0l59-59 91 170c13 23 41 32 64 19 22-12 31-40 19-63z" horiz-adv-x="1000" />

<glyph glyph-name="pin" unicode="&#xe820;" d="M271 642a42 42 0 0 0 42 41h375a42 42 0 1 0 0-83h-17l34-375h87a42 42 0 1 0 0-83h-250v-209a42 42 0 1 0-84 0v209h-250a42 42 0 1 0 0 83h87l34 375h-16a42 42 0 0 0-42 42z m142-42l-34-375h242l-34 375h-174z" horiz-adv-x="1000" />

<glyph glyph-name="solid-heart" unicode="&#xe821;" d="M500 573a188 188 0 0 1-146 69c-103 0-187-83-187-186 0-94 53-181 113-252 62-72 138-134 194-178a42 42 0 0 1 52 0c56 44 132 106 194 178 61 71 113 158 113 252 0 103-84 186-187 186-59 0-112-27-146-69z" horiz-adv-x="1000" />

<glyph glyph-name="heart" unicode="&#xe822;" d="M646 663c-58 0-113-25-146-71-37 46-87 71-146 71-104 0-187-84-187-188 0-96 54-179 112-250 63-71 138-133 196-179 17-13 38-13 50 0 58 46 133 104 196 179 62 71 112 158 112 250 0 104-83 188-187 188z m12-384c-50-54-108-104-158-146-54 42-112 92-158 146-54 63-92 134-92 196 0 58 46 104 104 104s104-46 104-104c0-25 17-42 42-42s42 17 42 42c0 58 46 104 104 104s104-46 104-104c0-62-37-129-92-196z" horiz-adv-x="1000" />

<glyph glyph-name="icon-flask-1" unicode="&#xe823;" d="M878 48l-226 297v353c30 12 50 40 50 73 0 44-36 79-80 79h-241c-43 0-79-35-79-79 0-33 20-61 49-73v-353l-226-297c-28-37-33-87-12-129 21-42 63-69 110-69h557c47 0 90 26 111 69 21 42 16 92-13 129z m-444 254c7 8 10 18 10 28v361h115v-361c0-10 4-21 10-28l235-310c4-5 6-12 6-19 0-4-1-9-3-13-5-11-16-17-28-17h-556c-11 0-22 6-27 17-5 10-4 23 3 32l235 310z m203-172h-158c0-24-20-44-44-44-24 0-44 20-44 44h-24l-93-121c-4-6-5-13-2-20 3-6 10-10 17-10h426c7 0 13 4 16 10 3 7 2 14-2 20l-92 121z" horiz-adv-x="1000" />

<glyph glyph-name="fingerprint-simple-bold" unicode="&#xe824;" d="M617-53c-6 0-12 1-18 3-24 10-35 37-25 62 44 108 67 222 66 338 0 26 21 47 47 47 0 0 0 0 0 0 26 0 47-21 47-47 0-129-25-255-73-374-7-18-25-29-44-29z m-375 84c-8 0-15 2-22 6-23 12-31 41-19 63 42 77 65 163 65 250 0 67 28 131 78 175 96 86 245 77 331-19 17-19 15-49-4-66-19-17-49-15-66 4-51 58-140 63-198 11-30-27-47-65-47-105 0-103-26-205-76-295-9-15-25-24-42-24z m605 22c-3 0-7 1-10 1-26 6-41 31-36 57 18 78 27 159 27 239 0 37-6 74-19 109-60 171-248 261-418 200-25-8-51 5-60 29-9 25 4 51 28 60 220 77 461-39 539-258 16-45 24-92 24-140 0-87-10-175-29-260-5-22-25-37-46-37z m-756 94c-7 0-13 1-19 4-24 11-34 39-24 62 20 43 30 90 30 137 0 120 51 234 141 315 19 17 49 15 66-4 17-20 15-49-4-66-69-63-109-152-109-245 0-60-13-121-38-176-8-17-25-27-43-27z m315-207c-8 0-15 2-22 6-23 12-31 41-19 63 9 16 17 32 25 48 10 24 38 34 62 23 23-11 34-39 23-62-9-18-18-36-28-54-8-16-24-24-41-24z m70 176c-4 0-8 0-11 1-25 6-41 32-34 57 15 58 22 117 22 176 0 26 21 47 47 47 0 0 0 0 0 0 26 0 47-21 47-47 0-67-8-134-25-199-6-21-25-35-46-35z" horiz-adv-x="1000" />

<glyph glyph-name="copy" unicode="&#xe825;" d="M387 713a42 42 0 0 0 30 12h166a125 125 0 0 0 125-125v-375a125 125 0 0 0-125-125h-291a125 125 0 0 0-125 125v250a42 42 0 0 0 12 30l208 208z m196-71h-125v-167a42 42 0 0 0-41-42h-167v-208a42 42 0 0 1 42-42h291a42 42 0 0 1 42 42v375a42 42 0 0 1-42 42z m-274-125h66v66l-66-66z m483 125a42 42 0 0 0 41-42v-500a125 125 0 0 0-125-125h-416a42 42 0 1 0 0 83h416a42 42 0 0 1 42 42v500a42 42 0 0 0 42 42z" horiz-adv-x="1000" />

<glyph glyph-name="lifebouy" unicode="&#xe826;" d="M169 392h127a209 209 0 0 0 162 162v127a334 334 0 0 1-289-289z m373 289v-127a209 209 0 0 0 162-162h127a334 334 0 0 1-289 289z m289-373h-127a209 209 0 0 0-162-162v-127a334 334 0 0 1 289 289z m-373-289v127a209 209 0 0 0-162 162h-127a334 334 0 0 1 289-289z m-375 331c0 230 187 417 417 417s417-187 417-417-187-417-417-417-417 187-417 417z m417 125a125 125 0 1 1 0-250 125 125 0 0 1 0 250z" horiz-adv-x="1000" />

<glyph glyph-name="monitor-bold" unicode="&#xe827;" d="M813 53h-625c-61 0-110 49-110 110v437c0 60 49 109 110 109h625c60 0 109-49 109-109v-437c0-61-49-110-109-110z m-625 563c-9 0-16-7-16-16v-437c0-9 7-16 16-16h625c8 0 15 7 15 16v437c0 9-7 16-15 16h-625z m437-688h-250c-26 0-47 21-47 47s21 47 47 47h250c26 0 47-21 47-47s-21-47-47-47z" horiz-adv-x="1000" />

<glyph glyph-name="chat-bubble" unicode="&#xe828;" d="M850 188c42 58 67 129 67 204 0 212-192 375-417 375s-417-163-417-375c0-213 192-375 417-375 38 0 79 4 113 12 37-33 75-58 120-75 46-17 96-29 146-21 13 4 25 13 34 25 4 13 4 29-5 42-41 54-75 121-58 188z m-54-163c-63 17-117 54-158 100-46-12-92-25-138-25-187 0-333 133-333 292s146 291 333 291 333-133 333-291c0-63-20-117-58-167-21-67-12-137 21-200z" horiz-adv-x="1000" />

<glyph glyph-name="logo" unicode="&#xe829;" d="M787-150c-25 0-113 157-125 202-24 93-19 133-17 146 4 38 41 57 44 110 0 16 9 96 15 159-16 3-32 11-46 22 42-57-20-126-111-217-97-97-312-187-312-187s90 215 187 312c71 71 128 125 177 125 14 0 27-5 39-14-11 14-18 30-21 46-63-6-144-14-160-15-52-2-71-40-110-44-4-1-12-2-24-2-23 0-61 4-121 20-49 13-230 116-198 129 16 6 68 11 137 11 66 0 147-4 226-15 99-13 190-29 252-41 1 3 2 6 3 10l-63 30c0 0-50 58-45 62 0 0 1 0 1 0 8 0 48-46 52-51 3-1 20-7 38-13l-18 16c0 0-24 90-18 92 0 0 0 0 0 0 7 0 29-78 31-84 5-4 19-10 38-20l-20 50c0 0 9 82 16 82 0 0 0 0 0 0 6-2-1-69-3-77 2-4 17-27 32-49 9 3 19 5 29 5 12 0 24-3 35-7-15 32-13 65 6 84 7 6 14 11 23 13 1 6 3 12 8 16 5 6 13 8 20 8 8 0 16-3 23-9 5-6 8-13 9-21 9 20 20 46 20 55-2 19-25 53-25 54-1 2-1 5 2 6 0 1 1 1 2 1 2 0 3-1 4-2 1-2 24-37 26-59 1-12-13-43-21-59 11-6 22-14 32-24 9-10 17-20 23-31 16 7 45 21 59 21 0 0 1 0 1 0 22-2 57-26 59-27 2-1 2-4 1-6-1-2-3-2-4-2-1 0-2 0-3 0 0 1-34 23-54 25 0 0 0 0-1 0-9 0-34-11-53-20 7 0 15-3 21-9 12-12 12-31 1-43-5-4-10-7-16-8-3-9-7-16-13-22-11-11-26-16-42-16-14 0-28 3-42 10 8-22 9-45 1-65 23-15 46-29 49-32 6 1 42 6 63 6 8 0 14-1 14-3 2-6-82-15-82-15l-50 19c11-18 17-33 21-37 5-2 86-25 84-32 0 0-2-1-4-1-18 0-89 20-89 20l-15 17c6-18 11-35 12-38 6-4 55-47 51-53 0 0 0 0-1 0-8 0-60 45-60 45l-31 64c-3-2-6-3-9-4 12-62 28-153 41-251 21-162 16-332 3-364-1-3-2-4-4-4" horiz-adv-x="999" />

<glyph glyph-name="icon-ossf2" unicode="&#xe82a;" d="M829 496c0 4-4 12-8 17-4 4-13 4-17 4-71-13-121 0-150 50-4 4-8 8-16 8-9 0-13-4-17-8-8-13-17-21-25-29-21 12-42 25-63 29l5 12c0 0 0 0 0 0l8 38c21 4 37 16 54 29 25 25 33 54 33 87s-12 63-33 84c-33 21-58 33-92 33s-62-12-87-37c0 0 0 0 0 0-21-21-29-42-33-71-21-13-38-29-50-42-30-29-42-50-38-67 0-8 8-16 13-20 8-5 12-5 20-5 9 0 21 0 34 9 8 4 21 4 41 4l-4-38c0 0 0 0 0 0l0-8c-29 4-58 0-91-8-67-25-117-75-155-150 0-4 0-4 0-9-4-41 5-79 30-116-9-4-17-9-21-13-4-4-9-8-4-16 0-5 4-13 8-17 42-33 79-54 117-63 0 0 4-8 8-12 21-21 42-33 62-46l17-37c-37 0-67-9-83-25-17-13-21-30-25-50 0-5 0-13 4-17 4-4 8-9 12-9h200c9 0 13 5 17 9 4 4 4 12 0 21l-29 58c0 0 0 0 0 0l0 25c12 0 25 0 37 4l50-100-4-21c-8-58 9-100 42-116 12-5 25-9 37-9 21 0 42 13 55 34 12 20 25 58-9 108 0 0-4 4-4 4l-25 21-12 25c150 29 212 179 191 446z m-321 312c21 0 42-8 55-25 16-16 25-33 25-54 0-21-9-41-25-58-9-8-17-13-25-17 4 9 4 21 0 25l-13 13c17 16 21 37 17 66 0 0 0 5 0 5-13 20-29 33-54 45 4 0 12 0 20 0z m-66-33c29-4 50-17 58-33 0-13 0-17-4-25-25 25-46 33-63 37 0 9 5 17 9 21z m-88-121c-4 0-4 0-4 0 4 4 8 13 17 17 12 12 33 29 50 42 16 12 41-17 58-34 0 0 0 0 0 0 0 0 0 0 0 0l29-29c0 0 4 0 4-4-12 0-25 0-37 8-4 0-4 0-8 0h0c-9 0-17 0-25 0 0 0 0 0-5 0h0c-33 9-58 4-79 0z m96-37l0 0c4 4 4 4 0 0 4 0 4 0 4 0 13-4 25-9 38-9l-4-12c-17-8-34-8-46-4l8 25z m-33-92c33-12 62-12 91 0 17-4 30-8 46-17-16-4-33-8-54-4-8 0-17 4-25 9-4 0-12 0-17 0-4-5-8-9-8-13-4-25-8-46-12-71-34 4-67 13-113 29 0 0-4 0-8 0-4 0-9 0-13-4 9 9 17 13 21 21 29 25 58 42 92 50z m-188-204c0-8 0-17 0-21-25 33-37 67-33 104 8 9 12 21 21 29 0-4 4-8 8-12l17-13c-9-20-13-45-13-70 0-5 0-13 0-17z m13-75c0 0 4 0 0 0 4 0 4 0 4-4 0 4 0 4-4 4z m4 208c-4 4-8 4-13 4h0c25 30 55 55 92 67-12-4-21-12-29-21-17-16-33-37-42-54l-8 4z m25-116c0 20 4 37 8 54l9-4c8 0 12 0 20 4l21 21c42-13 71-21 100-25 0-5 0-5 0-9-4-33 0-66 0-96-66 5-121 21-158 55 0-5 0 0 0 0z m50-309c0 0 0 0 0 0 12 13 33 21 83 17h0c0 0 0 0 0 0 0 0 0 0 4 0 5 0 9 4 13 4 0 0 0 0 0 0 4 4 8 13 25 0l12-25h-137z m92 79c4 0 4 0 8 0l4-8c-4 0-4 0-8 0l-4 8z m25 38c-17 0-38 8-50 12-21 9-42 25-59 42-8 8-12 13-16 21-13 17-25 37-30 58 42-21 96-33 155-33h0c8-38 25-71 45-100-16-4-33-4-45 0z m150-108l-13 29c8-4 13-4 21-9l8-16c0 0-4 0-4 0-8 0-12 0-12-4z m62-67c21-29 13-50 4-59-8-12-16-20-37-8-9 4-29 13-21 75l4 25c0 0 0 0 0 0 0 0 8 0 25-8l25-25z m-12 117c-9 0-17 4-21 8-34 12-59 29-79 50 0 0 0 0 0 0-34 29-55 75-63 125v0c-4 33-8 71-4 108 0 9 0 17 4 29 0 0 0 0 0 0 0 21 4 42 8 63 5 0 9 0 9 0 41-8 79 0 116 25 0 0 0 0 0 0 13 8 21 17 30 25 37-42 87-58 154-50 12-229-42-358-154-383z m-180 529c0 0-4 0-4 0l0 4c0 0 0 0 4-4-4 0 0 0 0 0z" horiz-adv-x="1000" />

<glyph glyph-name="instagram" unicode="&#xf16d;" d="M571 350q0 59-41 101t-101 42-101-42-42-101 42-101 101-42 101 42 41 101z m77 0q0-91-64-156t-155-64-156 64-64 156 64 156 156 64 155-64 64-156z m61 229q0-21-15-36t-37-15-36 15-15 36 15 36 36 15 37-15 15-36z m-280 123q-4 0-43 0t-59 0-54-2-57-5-40-11q-28-11-49-32t-33-49q-6-16-10-40t-6-58-1-53 0-59 0-43 0-43 0-59 1-53 6-58 10-40q12-28 33-49t49-32q16-6 40-11t57-5 54-2 59 0 43 0 42 0 59 0 54 2 58 5 39 11q28 11 50 32t32 49q6 16 10 40t6 58 1 53 0 59 0 43 0 43 0 59-1 53-6 58-10 40q-11 28-32 49t-50 32q-16 6-39 11t-58 5-54 2-59 0-42 0z m428-352q0-128-3-177-5-116-69-180t-179-69q-50-3-177-3t-177 3q-116 6-180 69t-69 180q-3 49-3 177t3 177q5 116 69 180t180 69q49 3 177 3t177-3q116-6 179-69t69-180q3-49 3-177z" horiz-adv-x="857.1" />

<glyph glyph-name="paypal" unicode="&#xf1ed;" d="M848 490q10-47-3-114-48-248-315-248h-24q-14 0-25-9t-13-24l-3-11-30-193-1-8q-3-15-14-24t-25-9h-140q-12 0-18 8t-5 20q5 32 14 94t15 94 15 93 15 94q3 21 24 21h73q75-2 132 11 98 22 160 81 57 53 87 137 13 39 19 74 1 4 2 4t2 1 3-2q44-33 55-90z m-96 157q0-60-26-132-45-130-168-176-64-22-141-23 0-1-50-1l-51 1q-55 0-65-54-2-4-48-295 0-6-7-6h-164q-12 0-21 9t-6 22l130 821q2 16 15 26t29 11h333q19 0 55-7t62-18q60-23 91-69t32-109z" horiz-adv-x="857.1" />
</font>
</defs>
</svg>
