<?xml version="1.0" encoding="utf-8"?>
<!-- Generator: Adobe Illustrator 16.0.0, SVG Export Plug-In . SVG Version: 6.00 Build 0)  -->
<!DOCTYPE svg PUBLIC "-//W3C//DTD SVG 1.1//EN" "http://www.w3.org/Graphics/SVG/1.1/DTD/svg11.dtd">
<svg version="1.1" id="Layer_1" xmlns="http://www.w3.org/2000/svg" xmlns:xlink="http://www.w3.org/1999/xlink" x="0px" y="0px"
	 width="98.35px" height="98.301px" viewBox="0 0 98.35 98.301" enable-background="new 0 0 98.35 98.301" xml:space="preserve">
<g id="Layer_2" opacity="0.2">
	<path fill="#FFFFFF" d="M49.2,98.301c-6.67,0-13.109-1.288-19.139-3.829c-1.504-0.635-3.015-1.379-4.492-2.216
		c-0.128-0.054-0.389-0.179-1.037-0.521c-0.699-0.395-0.952-0.555-1.09-0.652c-3.272-1.996-6.317-4.393-9.05-7.125
		c-4.539-4.539-8.077-9.794-10.516-15.621C1.476,62.655,0.188,56.667,0.05,50.541C0.017,50.075,0,49.62,0,49.2
		c0-0.465,0.017-0.883,0.05-1.299c0.106-6.225,1.395-12.246,3.831-17.897c2.435-5.85,5.974-11.106,10.514-15.613
		c4.501-4.535,9.775-8.074,15.672-10.515C36.088,1.306,42.53,0,49.2,0c6.637,0,13.076,1.306,19.141,3.88
		c1.637,0.667,3.242,1.452,4.761,2.326c0.268,0.118,0.521,0.256,0.753,0.412c0.298,0.178,0.651,0.396,1.022,0.632
		c3.25,1.965,6.305,4.368,9.08,7.144c4.505,4.505,8.043,9.76,10.515,15.619c2.403,5.653,3.708,11.681,3.878,17.91h-0.001L98.35,50.4
		c0,0.009-0.001,0.018-0.001,0.027h0.001c-0.169,6.161-1.474,12.188-3.877,17.909C92,74.164,88.463,79.417,83.96,83.954
		c-2.776,2.742-5.822,5.14-9.063,7.133c-0.345,0.241-0.726,0.478-1.116,0.69c-0.22,0.11-0.42,0.218-0.636,0.341l-0.643,0.424
		c-1.353,0.709-2.757,1.36-4.177,1.935C62.274,97.012,55.836,98.301,49.2,98.301z M38.375,95.072
		c7.002,1.628,14.571,1.637,21.616,0.002c-1.784-0.079-3.556-0.348-5.297-0.808c-1.958-0.537-3.804-1.282-5.503-2.222
		c-1.753,0.938-3.627,1.685-5.576,2.219C41.88,94.722,40.129,94.992,38.375,95.072z M49.209,89.747l0.496,0.29
		c1.683,0.984,3.536,1.757,5.509,2.298c2.883,0.762,5.867,0.956,8.859,0.573c2.635-0.286,5.145-1,7.479-2.128l0.542-0.362
		c0.313-0.18,0.545-0.306,0.76-0.414c0.297-0.163,0.619-0.361,0.922-0.574c2.246-1.509,4.22-3.368,5.879-5.538
		c1.777-2.35,3.084-5.012,3.88-7.907c0.472-1.95,0.714-3.958,0.714-5.937v-0.574l0.498-0.289c1.757-1.022,3.409-2.27,4.912-3.708
		c2.047-2.08,3.692-4.55,4.871-7.319c1.049-2.509,1.662-5.142,1.822-7.818l-0.002-2.377c0-0.009,0-0.017,0-0.024
		c-0.159-2.646-0.772-5.292-1.823-7.803c-1.174-2.729-2.819-5.184-4.889-7.284c-1.482-1.452-3.129-2.695-4.879-3.682l-0.509-0.287
		v-0.581c0-2.044-0.243-4.065-0.721-6.012c-0.79-2.873-2.098-5.554-3.881-7.939c-1.646-2.122-3.617-3.948-5.848-5.413
		c-0.347-0.222-0.688-0.434-1.016-0.629c-0.188-0.124-0.354-0.212-0.529-0.288l0.325-0.758l-0.4,0.722
		c-2.519-1.339-5.252-2.229-8.124-2.644c-2.962-0.347-5.948-0.12-8.842,0.676c-1.973,0.541-3.827,1.313-5.51,2.299l-0.496,0.29
		l-0.5-0.282c-1.754-0.989-3.646-1.765-5.623-2.307c-2.896-0.794-5.843-1.021-8.769-0.671c-3.07,0.442-6.016,1.446-8.727,2.978
		c-2.731,1.556-5.052,3.586-6.893,6.031c-1.78,2.384-3.105,5.063-3.936,7.963C14.257,24.252,14,26.266,14,28.301v0.578l-0.502,0.288
		c-1.709,0.981-3.282,2.218-4.675,3.674c-2.154,2.122-3.85,4.575-5.059,7.313c-1.007,2.487-1.588,5.136-1.716,7.843l-0.7-0.021
		l0.698,0.058C2.016,48.405,2,48.778,2,49.15c0,0.428,0.016,0.838,0.047,1.279c0.128,2.693,0.709,5.29,1.726,7.736
		c1.202,2.752,2.896,5.223,5.028,7.322c1.412,1.444,2.991,2.685,4.708,3.702L14,69.48v0.57c0,1.973,0.258,3.975,0.768,5.949
		c0.822,2.875,2.146,5.54,3.93,7.896c1.626,2.168,3.596,4.023,5.854,5.52c0.083,0.061,0.243,0.171,0.939,0.563
		c0.445,0.234,0.736,0.385,0.854,0.433l0.125,0.057c2.443,1.3,5.082,2.12,7.844,2.438c2.94,0.382,5.891,0.19,8.781-0.574
		c1.969-0.54,3.861-1.315,5.614-2.304L49.209,89.747z M86.243,70.622c-0.042,1.951-0.302,3.92-0.771,5.864
		c-0.491,1.787-1.155,3.484-1.988,5.083c3.873-4.123,6.948-8.831,9.146-14.008c0.66-1.571,1.233-3.167,1.72-4.782
		c-0.951,1.488-2.049,2.866-3.287,4.124C89.568,68.334,87.954,69.578,86.243,70.622z M3.988,62.753
		c0.487,1.624,1.065,3.229,1.732,4.809c2.165,5.172,5.233,9.875,9.13,13.998c-0.835-1.589-1.509-3.272-2.012-5.034
		c-0.509-1.973-0.787-3.951-0.832-5.909c-1.681-1.048-3.233-2.297-4.622-3.717C6.106,65.64,4.97,64.253,3.988,62.753z
		 M14.783,16.856c-3.867,4.083-6.91,8.761-9.061,13.929c-0.685,1.589-1.275,3.208-1.771,4.854c0.993-1.517,2.145-2.918,3.445-4.2
		c1.371-1.435,2.925-2.688,4.608-3.712c0.044-2.015,0.322-4.006,0.826-5.931l0.006-0.021C13.328,20.061,13.979,18.417,14.783,16.856
		z M86.244,27.721c1.714,1.021,3.329,2.269,4.806,3.715c1.252,1.271,2.359,2.656,3.314,4.144c-0.49-1.623-1.068-3.221-1.734-4.788
		c-2.185-5.177-5.235-9.86-9.078-13.943c0.8,1.567,1.439,3.218,1.912,4.938C85.941,23.727,86.202,25.714,86.244,27.721z
		 M38.447,3.228c1.733,0.103,3.461,0.389,5.169,0.857c1.947,0.534,3.821,1.28,5.575,2.22c1.699-0.939,3.545-1.686,5.494-2.22
		c1.72-0.473,3.467-0.76,5.23-0.86C52.912,1.59,45.402,1.6,38.447,3.228z M49.2,74.25c-3.387,0-6.681-0.666-9.789-1.978
		c-0.932-0.415-1.858-0.861-2.771-1.334c-1.916-1.133-3.634-2.482-5.155-4.038c-2.301-2.267-4.139-4.946-5.451-7.949
		c-1.285-3.091-1.934-6.383-1.934-9.8c0-3.382,0.647-6.673,1.925-9.78c1.321-2.99,3.157-5.647,5.467-7.925
		c1.52-1.554,3.235-2.901,5.099-4.005c0.939-0.556,1.892-1.033,2.832-1.416c3.098-1.308,6.392-1.974,9.777-1.974
		c3.42,0,6.715,0.666,9.793,1.979c0.938,0.382,1.865,0.865,2.746,1.428c1.827,1.082,3.588,2.425,5.201,3.971
		c2.266,2.299,4.052,4.958,5.328,7.927c1.349,3.11,2.032,6.407,2.032,9.795c0,3.423-0.685,6.721-2.034,9.801
		c-1.271,2.992-3.059,5.671-5.304,7.951c-1.634,1.566-3.396,2.908-5.252,4.008c-0.874,0.49-1.776,0.942-2.703,1.354
		C55.916,73.584,52.621,74.25,49.2,74.25z M39.152,69.953c0.351,0.166,0.703,0.328,1.055,0.484c2.844,1.2,5.875,1.813,8.993,1.813
		c3.149,0,6.18-0.611,9.008-1.818c0.673-0.301,1.341-0.626,1.984-0.971c-0.045-1.842-0.3-3.676-0.761-5.461
		c-0.791-2.847-2.099-5.512-3.883-7.901c-1.535-2.046-3.354-3.781-5.42-5.171c-0.214,2.801-0.871,5.487-1.96,8.019
		c-1.24,2.996-3.028,5.679-5.313,7.962C41.729,68.036,40.488,69.056,39.152,69.953z M26.16,50.872
		c0.178,2.536,0.752,4.983,1.713,7.294c1.203,2.752,2.896,5.223,5.027,7.322c1.274,1.303,2.685,2.44,4.208,3.396
		c1.584-0.958,3.04-2.098,4.333-3.392c2.097-2.096,3.739-4.561,4.884-7.326c0.996-2.315,1.6-4.766,1.802-7.309
		c-2.535,1.207-5.169,1.98-7.9,2.333c-3.217,0.416-6.46,0.188-9.64-0.677C29.08,52.138,27.594,51.586,26.16,50.872z M51.228,49.254
		c2.242,1.502,4.24,3.402,5.922,5.646c1.936,2.591,3.353,5.478,4.214,8.583c0.406,1.574,0.666,3.174,0.774,4.782
		c1.192-0.819,2.34-1.753,3.419-2.787c2.047-2.08,3.694-4.549,4.872-7.319c1.165-2.659,1.79-5.485,1.863-8.42
		c-1.61-0.859-3.331-1.558-5.122-2.078c-2.859-0.69-5.854-0.869-8.855-0.517C55.831,47.438,53.452,48.146,51.228,49.254z
		 M26.107,48.579c1.594,0.899,3.269,1.571,4.986,2c2.945,0.801,5.925,1.01,8.879,0.629c2.495-0.321,4.903-1.024,7.179-2.094
		c-2.279-1.557-4.292-3.453-5.991-5.652c-1.947-2.641-3.348-5.563-4.177-8.707c-0.423-1.542-0.695-3.105-0.813-4.666
		c-1.166,0.815-2.255,1.739-3.254,2.761l-0.014,0.013c-2.132,2.101-3.826,4.554-5.036,7.292
		C26.769,42.822,26.175,45.66,26.107,48.579z M61.193,29.468c-1.521,0.931-2.941,2.066-4.229,3.383
		c-2.177,2.113-3.851,4.559-4.992,7.286c-0.966,2.36-1.542,4.835-1.717,7.368c2.453-1.233,5.08-2.021,7.827-2.348
		c3.24-0.38,6.47-0.187,9.603,0.571c1.593,0.462,3.112,1.043,4.555,1.74c-0.187-2.522-0.792-4.979-1.807-7.32
		c-1.18-2.741-2.826-5.195-4.896-7.295C64.198,31.571,62.734,30.429,61.193,29.468z M38.108,28.875
		c0.049,1.781,0.318,3.582,0.807,5.361c0.767,2.907,2.058,5.602,3.841,8.021c1.541,1.992,3.371,3.724,5.445,5.151v-0.125
		l0.063,0.042c0.193-2.736,0.817-5.403,1.861-7.954c1.249-2.985,3.074-5.653,5.428-7.938c1.132-1.158,2.373-2.196,3.695-3.091
		c-0.339-0.17-0.682-0.324-1.026-0.466c-2.843-1.213-5.874-1.825-9.022-1.825c-3.117,0-6.149,0.612-9.012,1.82
		C39.495,28.154,38.799,28.49,38.108,28.875z"/>
</g>
<g id="Layer_1_1_">
	<path fill="#FFFFFF" d="M49.278,92.62l-0.739-0.398c-0.943-0.509-1.877-1.13-2.775-1.85c-2.713-1.981-4.96-4.534-6.625-7.545
		c-1.709-3-2.83-6.239-3.322-9.609c-0.026-0.261-0.051-0.52-0.07-0.776c-0.215,0.098-0.434,0.194-0.653,0.289
		c-3.142,1.341-6.486,2.021-9.941,2.021c-3.453,0-6.813-0.679-9.982-2.018c-0.952-0.423-1.887-0.874-2.809-1.352l-0.809-0.42v-0.911
		c0-1.079,0.053-2.125,0.158-3.108c0.463-3.458,1.588-6.708,3.349-9.702c1.68-3.011,3.924-5.577,6.651-7.594
		c0.21-0.16,0.423-0.317,0.639-0.473c-0.22-0.154-0.438-0.313-0.655-0.479c-2.713-2.043-4.95-4.585-6.645-7.55
		c-1.751-2.978-2.876-6.228-3.335-9.646l-0.006-0.055c-0.104-1.08-0.157-2.137-0.157-3.144v-0.855l0.735-0.436
		c0.959-0.568,1.935-1.057,2.898-1.449c3.154-1.332,6.514-2.011,9.966-2.011c3.455,0,6.8,0.68,9.939,2.021
		c0.219,0.086,0.438,0.178,0.657,0.274c0.018-0.232,0.039-0.464,0.062-0.694c0.501-3.41,1.623-6.616,3.343-9.6
		c1.646-3.012,3.887-5.61,6.646-7.697c0.918-0.627,1.808-1.187,2.705-1.703l0.78-0.45l0.764,0.478c0.817,0.51,1.649,1.054,2.5,1.632
		c2.812,2.124,5.083,4.716,6.81,7.748c1.723,2.986,2.812,6.204,3.235,9.555c0.025,0.252,0.047,0.504,0.067,0.754
		c0.247-0.11,0.495-0.214,0.745-0.313c3.138-1.325,6.496-2.004,9.949-2.004c3.457,0,6.786,0.681,9.896,2.022
		c1.002,0.378,1.995,0.885,2.887,1.479l0.668,0.444v0.804c0,0.983-0.035,2.025-0.104,3.096l-0.011,0.103
		c-0.457,3.408-1.544,6.651-3.229,9.639c-1.777,2.985-4.043,5.519-6.753,7.561c-0.215,0.163-0.431,0.322-0.645,0.476
		c0.216,0.157,0.434,0.318,0.649,0.482c2.703,2,4.975,4.558,6.739,7.59c1.695,3.004,2.782,6.247,3.239,9.655
		c0.079,1.065,0.114,2.093,0.114,3.147v0.862l-0.745,0.435c-0.856,0.5-1.81,0.967-2.832,1.391c-3.087,1.333-6.416,2.014-9.874,2.014
		c-3.454,0-6.813-0.679-9.983-2.018c-0.238-0.103-0.476-0.207-0.71-0.313c-0.019,0.24-0.039,0.481-0.063,0.726
		c-0.428,3.424-1.516,6.673-3.24,9.699c-1.734,3.009-4.011,5.553-6.769,7.567c-0.833,0.669-1.719,1.283-2.58,1.785L49.278,92.62z
		 M38.65,70.051c0,0.944,0.049,1.886,0.143,2.796c0.43,2.937,1.429,5.821,2.961,8.512c1.462,2.644,3.421,4.869,5.832,6.631
		c0.556,0.443,1.099,0.829,1.638,1.163c0.505-0.332,1.021-0.708,1.539-1.123c2.47-1.807,4.467-4.041,5.989-6.678
		c1.522-2.674,2.487-5.549,2.861-8.537c0.062-0.65,0.104-1.302,0.123-1.936c-1.614-1.031-3.123-2.247-4.495-3.618
		c-2.389-2.318-4.252-5.062-5.526-8.138c-0.964-2.325-1.581-4.77-1.839-7.29c-1.761,1.272-3.331,2.806-4.684,4.577
		c-1.733,2.322-2.997,4.926-3.742,7.727C38.918,66.074,38.65,68.06,38.65,70.051z M61.989,68.744
		c0.818,0.439,1.677,0.854,2.553,1.229c2.792,1.179,5.758,1.777,8.809,1.777c3.046,0,5.976-0.598,8.705-1.775
		c0.619-0.256,1.198-0.525,1.736-0.806c-0.015-0.674-0.043-1.331-0.088-1.961c-0.396-2.935-1.362-5.815-2.86-8.47
		c-1.547-2.66-3.548-4.914-5.936-6.681c-0.547-0.415-1.083-0.799-1.606-1.15c-1.722,0.938-3.55,1.644-5.449,2.103
		c-3.166,0.871-6.476,1.104-9.792,0.68c-2.509-0.324-4.917-0.996-7.186-2.003c0.235,2.159,0.775,4.275,1.611,6.291
		c1.116,2.697,2.75,5.102,4.859,7.148C58.758,66.537,60.315,67.75,61.989,68.744z M14.564,69.136c0.599,0.296,1.2,0.578,1.796,0.844
		c2.773,1.171,5.739,1.77,8.79,1.77c3.049,0,5.996-0.599,8.762-1.778c0.604-0.26,1.191-0.536,1.755-0.827
		c0.069-1.954,0.368-3.898,0.887-5.792c0.843-3.161,2.272-6.108,4.245-8.75c1.56-2.043,3.368-3.804,5.4-5.259
		c-1.989-0.879-4.075-1.45-6.226-1.704c-2.909-0.344-5.844-0.17-8.725,0.519c-1.8,0.542-3.63,1.322-5.355,2.294
		c-0.808,0.467-1.61,1.002-2.385,1.591c-2.398,1.774-4.36,4.021-5.848,6.688c-1.574,2.676-2.569,5.549-2.975,8.568
		C14.625,67.872,14.584,68.491,14.564,69.136z M52.271,49.022c1.952,0.846,4.02,1.413,6.17,1.689c2.92,0.373,5.833,0.168,8.66-0.608
		c1.797-0.437,3.488-1.105,5.068-2.001l0.424-0.248c0.741-0.434,1.515-0.954,2.299-1.55c2.402-1.81,4.408-4.054,5.968-6.673
		c1.474-2.607,2.436-5.472,2.846-8.48c0.044-0.69,0.071-1.366,0.085-2.02c-0.522-0.295-1.083-0.557-1.673-0.78
		c-2.794-1.205-5.724-1.803-8.769-1.803c-3.05,0-6.017,0.601-8.816,1.782c-0.624,0.246-1.223,0.525-1.8,0.84
		c-0.064,1.899-0.345,3.813-0.832,5.703c-0.884,3.219-2.326,6.193-4.295,8.865C56.068,45.766,54.281,47.533,52.271,49.022z
		 M14.69,31.128c0.407,3.011,1.401,5.873,2.953,8.512c1.5,2.625,3.468,4.86,5.859,6.662c0.547,0.416,1.104,0.794,1.664,1.132
		c1.696-0.895,3.477-1.623,5.303-2.17c3.308-0.793,6.598-0.988,9.857-0.604c2.521,0.298,4.963,0.979,7.285,2.029
		c-0.257-2.153-0.825-4.296-1.694-6.357c-1.12-2.676-2.728-5.07-4.778-7.122c-0.782-0.799-1.62-1.527-2.508-2.183l-2.289-1.464
		c-0.749-0.479-1.553-0.89-2.391-1.218c-2.807-1.197-5.753-1.797-8.802-1.797c-3.05,0-6.016,0.601-8.815,1.782
		c-0.592,0.241-1.184,0.521-1.771,0.835C14.584,29.805,14.626,30.461,14.69,31.128z M38.663,27.443
		c1.68,1.018,3.228,2.245,4.608,3.658c2.317,2.315,4.143,5.035,5.412,8.068c0.997,2.365,1.644,4.83,1.926,7.349
		c1.731-1.3,3.271-2.833,4.597-4.577c1.735-2.356,3.018-5,3.798-7.839c0.493-1.912,0.746-3.872,0.746-5.804
		c0-0.945-0.048-1.904-0.143-2.851c-0.368-2.914-1.332-5.753-2.856-8.4c-1.529-2.683-3.531-4.969-5.956-6.803
		c-0.51-0.345-1.04-0.694-1.572-1.037c-0.568,0.347-1.131,0.708-1.68,1.081c-2.356,1.785-4.321,4.064-5.777,6.729
		c-1.548,2.685-2.545,5.535-2.981,8.5C38.724,26.13,38.682,26.783,38.663,27.443z"/>
</g>
</svg>
